<svg width="24" height="24" viewBox="0 0 24 24" fill="none" xmlns="http://www.w3.org/2000/svg">
<path d="M1.64918 8.01996C-0.549727 10.1762 -0.549727 13.7809 1.64918 15.9793L8.01996 22.3496C10.1762 24.5481 13.7809 24.5481 15.9793 22.3496L22.3496 15.9793C24.5481 13.7809 24.5481 10.1762 22.3496 8.01996L15.9793 1.64918C13.7809 -0.549727 10.1762 -0.549727 8.01996 1.64918L1.64918 8.01996ZM14.7887 14.7887C13.2465 16.3262 10.7528 16.3262 9.21527 14.7887C7.67309 13.2465 7.67309 10.7528 9.21527 9.21527C10.7528 7.67309 13.2465 7.67309 14.7887 9.21527C16.3262 10.7528 16.3262 13.2465 14.7887 14.7887Z" fill="#153B30"/>
</svg>
