<svg width="321" height="77" viewBox="0 0 321 77" fill="none" xmlns="http://www.w3.org/2000/svg">
<path d="M75.656 32.2748H75.9037C73.0657 13.9927 57.2563 0 38.1787 0C17.0932 0 0 17.0932 0 38.1787C0 24.3753 11.1899 13.1854 24.9933 13.1854C29.8329 13.1854 34.3512 14.561 38.1787 16.9424C43.6592 20.3525 47.7231 25.825 49.2852 32.2748H75.656Z" fill="#047857"/>
<path d="M75.9037 44.0826H75.656H49.2852C47.7231 50.5324 43.6592 56.0049 38.1787 59.415C34.3512 61.7964 29.8329 63.172 24.9933 63.172C11.1899 63.172 0 51.9821 0 38.1787C0 59.2642 17.0932 76.3574 38.1787 76.3574C57.2563 76.3574 73.0657 62.3647 75.9037 44.0826Z" fill="#047857"/>
<path d="M26.3708 38.1788C26.3708 47.1426 31.0897 55.0042 38.1787 59.4151C34.3512 61.7965 29.8329 63.1721 24.9933 63.1721C11.1899 63.1721 0 51.9822 0 38.1788C0 24.3754 11.1899 13.1855 24.9933 13.1855C29.8329 13.1855 34.3512 14.5611 38.1787 16.9426C31.0897 21.3534 26.3708 29.215 26.3708 38.1788Z" fill="#ABD2C7"/>
<path d="M108.651 58.4595C104.903 58.4595 101.693 57.644 99.0208 56.0129C96.3486 54.3645 94.2924 52.074 92.8522 49.1415C91.4294 46.2091 90.7179 42.8081 90.7179 38.9386C90.7179 35.0691 91.4294 31.6681 92.8522 28.7356C94.2924 25.8031 96.3486 23.5214 99.0208 21.8903C101.693 20.2418 104.903 19.4176 108.651 19.4176C112.972 19.4176 116.572 20.5021 119.453 22.6711C122.333 24.8228 124.355 27.7292 125.517 31.3905L119.193 33.1344C118.464 30.6877 117.223 28.779 115.471 27.4082C113.718 26.02 111.445 25.326 108.651 25.326C106.135 25.326 104.036 25.8899 102.352 27.0178C100.687 28.1457 99.4286 29.7334 98.5784 31.7809C97.7455 33.8111 97.3204 36.197 97.303 38.9386C97.303 41.6802 97.7194 44.0748 98.5523 46.1223C99.4026 48.1525 100.669 49.7315 102.352 50.8594C104.036 51.9873 106.135 52.5512 108.651 52.5512C111.445 52.5512 113.718 51.8571 115.471 50.469C117.223 49.0808 118.464 47.1721 119.193 44.7428L125.517 46.4867C124.355 50.148 122.333 53.0631 119.453 55.2321C116.572 57.3837 112.972 58.4595 108.651 58.4595ZM138.572 58.4595C136.542 58.4595 134.824 58.0778 133.418 57.3143C132.013 56.5335 130.946 55.501 130.217 54.217C129.506 52.9329 129.15 51.5188 129.15 49.9744C129.15 48.621 129.375 47.4063 129.827 46.3305C130.278 45.2373 130.972 44.3003 131.909 43.5195C132.846 42.7213 134.06 42.0706 135.553 41.5674C136.681 41.203 137.999 40.8733 139.509 40.5783C141.036 40.2834 142.684 40.0144 144.454 39.7715C146.242 39.5112 148.107 39.2336 150.05 38.9386L147.812 40.214C147.829 38.2705 147.395 36.839 146.51 35.9193C145.626 34.9997 144.133 34.5399 142.034 34.5399C140.767 34.5399 139.544 34.8348 138.364 35.4248C137.184 36.0148 136.36 37.0299 135.891 38.4701L130.165 36.6742C130.859 34.2969 132.178 32.3882 134.121 30.948C136.082 29.5078 138.719 28.7877 142.034 28.7877C144.532 28.7877 146.727 29.1955 148.619 30.011C150.527 30.8265 151.942 32.1626 152.861 34.0193C153.365 35.0084 153.668 36.0235 153.772 37.0646C153.876 38.0883 153.928 39.2075 153.928 40.4222V57.6787H148.437V51.5882L149.348 52.5772C148.081 54.6074 146.597 56.0997 144.897 57.054C143.214 57.991 141.105 58.4595 138.572 58.4595ZM139.821 53.4622C141.244 53.4622 142.459 53.2106 143.465 52.7074C144.472 52.2042 145.27 51.5882 145.86 50.8594C146.467 50.1306 146.875 49.4452 147.083 48.8032C147.413 48.005 147.595 47.094 147.63 46.0702C147.682 45.0291 147.708 44.1876 147.708 43.5455L149.634 44.1181C147.742 44.4131 146.12 44.6734 144.767 44.899C143.413 45.1246 142.251 45.3415 141.279 45.5497C140.307 45.7406 139.448 45.9575 138.702 46.2004C137.973 46.4607 137.357 46.7643 136.854 47.1114C136.351 47.4584 135.96 47.8575 135.683 48.3086C135.423 48.7598 135.292 49.289 135.292 49.8964C135.292 50.5904 135.466 51.2064 135.813 51.7443C136.16 52.2649 136.663 52.6813 137.323 52.9937C137.999 53.306 138.832 53.4622 139.821 53.4622ZM173.693 58.4595C170.951 58.4595 168.652 57.8089 166.795 56.5075C164.939 55.2061 163.542 53.4362 162.605 51.1978C161.668 48.942 161.199 46.4173 161.199 43.6236C161.199 40.7952 161.668 38.2619 162.605 36.0235C163.542 33.7851 164.913 32.0238 166.717 30.7398C168.539 29.4384 170.786 28.7877 173.458 28.7877C176.113 28.7877 178.412 29.4384 180.356 30.7398C182.317 32.0238 183.835 33.7851 184.911 36.0235C185.986 38.2445 186.524 40.7779 186.524 43.6236C186.524 46.4346 185.995 48.9593 184.937 51.1978C183.878 53.4362 182.386 55.2061 180.46 56.5075C178.534 57.8089 176.278 58.4595 173.693 58.4595ZM160.132 70.1721V29.5685H165.676V49.2977H166.457V70.1721H160.132ZM172.73 52.8375C174.361 52.8375 175.705 52.4297 176.764 51.6142C177.822 50.7987 178.603 49.6968 179.106 48.3086C179.627 46.9031 179.887 45.3415 179.887 43.6236C179.887 41.9231 179.627 40.3788 179.106 38.9906C178.586 37.5851 177.779 36.4746 176.686 35.6591C175.593 34.8262 174.204 34.4097 172.521 34.4097C170.925 34.4097 169.624 34.8001 168.617 35.581C167.611 36.3445 166.865 37.4203 166.379 38.8084C165.91 40.1793 165.676 41.7843 165.676 43.6236C165.676 45.4456 165.91 47.0506 166.379 48.4388C166.865 49.8269 167.619 50.9114 168.643 51.6923C169.684 52.4558 171.046 52.8375 172.73 52.8375ZM199.601 58.4595C197.571 58.4595 195.853 58.0778 194.448 57.3143C193.042 56.5335 191.975 55.501 191.246 54.217C190.535 52.9329 190.179 51.5188 190.179 49.9744C190.179 48.621 190.405 47.4063 190.856 46.3305C191.307 45.2373 192.001 44.3003 192.938 43.5195C193.875 42.7213 195.09 42.0706 196.582 41.5674C197.71 41.203 199.029 40.8733 200.538 40.5783C202.065 40.2834 203.714 40.0144 205.484 39.7715C207.271 39.5112 209.136 39.2336 211.08 38.9386L208.841 40.214C208.859 38.2705 208.425 36.839 207.54 35.9193C206.655 34.9997 205.163 34.5399 203.063 34.5399C201.796 34.5399 200.573 34.8348 199.393 35.4248C198.213 36.0148 197.389 37.0299 196.921 38.4701L191.194 36.6742C191.888 34.2969 193.207 32.3882 195.151 30.948C197.111 29.5078 199.749 28.7877 203.063 28.7877C205.562 28.7877 207.757 29.1955 209.648 30.011C211.557 30.8265 212.971 32.1626 213.891 34.0193C214.394 35.0084 214.698 36.0235 214.802 37.0646C214.906 38.0883 214.958 39.2075 214.958 40.4222V57.6787H209.466V51.5882L210.377 52.5772C209.11 54.6074 207.627 56.0997 205.926 57.054C204.243 57.991 202.135 58.4595 199.601 58.4595ZM200.851 53.4622C202.274 53.4622 203.488 53.2106 204.495 52.7074C205.501 52.2042 206.299 51.5882 206.889 50.8594C207.497 50.1306 207.904 49.4452 208.113 48.8032C208.442 48.005 208.624 47.094 208.659 46.0702C208.711 45.0291 208.737 44.1876 208.737 43.5455L210.663 44.1181C208.772 44.4131 207.149 44.6734 205.796 44.899C204.443 45.1246 203.28 45.3415 202.308 45.5497C201.337 45.7406 200.478 45.9575 199.732 46.2004C199.003 46.4607 198.387 46.7643 197.884 47.1114C197.38 47.4584 196.99 47.8575 196.712 48.3086C196.452 48.7598 196.322 49.289 196.322 49.8964C196.322 50.5904 196.495 51.2064 196.842 51.7443C197.189 52.2649 197.693 52.6813 198.352 52.9937C199.029 53.306 199.862 53.4622 200.851 53.4622ZM221.734 57.6787V19.4176H228.007V57.6787H221.734ZM238.979 70.1721L244.393 55.3102L244.497 59.6829L232.238 29.5685H238.771L247.464 51.8484H245.798L254.257 29.5685H260.53L244.861 70.1721H238.979ZM274.745 58.4595C271.275 58.4595 268.455 57.6787 266.286 56.117C264.117 54.5554 262.798 52.3603 262.33 49.532L268.732 48.5429C269.062 49.9311 269.791 51.0242 270.919 51.8224C272.047 52.6206 273.47 53.0197 275.187 53.0197C276.697 53.0197 277.86 52.7247 278.675 52.1348C279.508 51.5274 279.924 50.7032 279.924 49.6621C279.924 49.0201 279.768 48.5082 279.456 48.1265C279.161 47.7274 278.502 47.3456 277.478 46.9812C276.454 46.6168 274.884 46.157 272.767 45.6017C270.407 44.9771 268.533 44.309 267.145 43.5976C265.757 42.8688 264.759 42.0099 264.152 41.0208C263.544 40.0318 263.241 38.8345 263.241 37.429C263.241 35.6764 263.7 34.1494 264.62 32.848C265.54 31.5466 266.824 30.5489 268.472 29.8548C270.121 29.1434 272.064 28.7877 274.302 28.7877C276.489 28.7877 278.424 29.126 280.107 29.8028C281.807 30.4795 283.178 31.4425 284.219 32.6919C285.26 33.9412 285.902 35.4075 286.145 37.0906L279.742 38.2358C279.586 37.0385 279.04 36.0929 278.103 35.3988C277.183 34.7047 275.951 34.3143 274.407 34.2275C272.932 34.1408 271.743 34.3663 270.841 34.9043C269.938 35.4248 269.487 36.1623 269.487 37.1166C269.487 37.6545 269.669 38.1144 270.034 38.4961C270.398 38.8779 271.127 39.2596 272.22 39.6413C273.331 40.0231 274.979 40.4916 277.166 41.0468C279.404 41.6195 281.191 42.2788 282.527 43.025C283.881 43.7538 284.852 44.63 285.442 45.6538C286.05 46.6776 286.353 47.9182 286.353 49.3758C286.353 52.2042 285.321 54.4252 283.256 56.0389C281.209 57.6527 278.371 58.4595 274.745 58.4595ZM304.313 58.4595C301.468 58.4595 298.969 57.8436 296.817 56.6116C294.666 55.3796 292.983 53.6704 291.768 51.4841C290.571 49.2977 289.972 46.7817 289.972 43.936C289.972 40.8647 290.562 38.2011 291.742 35.9454C292.922 33.6723 294.562 31.911 296.661 30.6617C298.761 29.4124 301.19 28.7877 303.949 28.7877C306.864 28.7877 309.337 29.4731 311.367 30.8439C313.415 32.1973 314.933 34.1147 315.922 36.5961C316.911 39.0774 317.284 42.0012 317.041 45.3675H310.82V43.077C310.803 40.0231 310.265 37.7934 309.207 36.3878C308.148 34.9823 306.482 34.2796 304.209 34.2796C301.641 34.2796 299.733 35.0778 298.483 36.6742C297.234 38.2532 296.609 40.5697 296.609 43.6236C296.609 46.4693 297.234 48.673 298.483 50.2347C299.733 51.7964 301.555 52.5772 303.949 52.5772C305.493 52.5772 306.821 52.2389 307.931 51.5621C309.059 50.8681 309.927 49.8703 310.534 48.5689L316.729 50.4429C315.653 52.9763 313.987 54.9458 311.731 56.3513C309.493 57.7568 307.02 58.4595 304.313 58.4595ZM294.631 45.3675V40.6304H313.97V45.3675H294.631Z" fill="#047857"/>
</svg>
