<svg width="16" height="16" viewBox="0 0 16 16" fill="none" xmlns="http://www.w3.org/2000/svg">
<g clip-path="url(#clip0_279_5312)">
<path d="M8.00003 0.888672C6.59359 0.888672 5.21872 1.30573 4.04931 2.08711C2.87989 2.86849 1.96844 3.97909 1.43022 5.27848C0.891997 6.57786 0.751173 8.00767 1.02556 9.38709C1.29994 10.7665 1.97721 12.0336 2.97172 13.0281C3.96622 14.0226 5.2333 14.6999 6.61272 14.9743C7.99214 15.2486 9.42195 15.1078 10.7213 14.5696C12.0207 14.0314 13.1313 13.1199 13.9127 11.9505C14.6941 10.7811 15.1111 9.40623 15.1111 7.99978C15.1111 6.1138 14.3619 4.30506 13.0283 2.97147C11.6948 1.63788 9.88601 0.888672 8.00003 0.888672ZM8.00003 14.222C6.76939 14.222 5.56639 13.8571 4.54315 13.1734C3.51991 12.4897 2.72239 11.5179 2.25145 10.3809C1.7805 9.24396 1.65728 7.99288 1.89737 6.78589C2.13745 5.57889 2.73006 4.4702 3.60025 3.60001C4.47045 2.72981 5.57914 2.1372 6.78614 1.89712C7.99313 1.65703 9.24421 1.78025 10.3812 2.2512C11.5181 2.72214 12.4899 3.51966 13.1736 4.5429C13.8573 5.56614 14.2223 6.76914 14.2223 7.99978C14.2223 9.65002 13.5667 11.2327 12.3998 12.3996C11.2329 13.5665 9.65027 14.222 8.00003 14.222Z" fill="#706A6A"/>
<path d="M12.4444 5.37778C12.3612 5.295 12.2485 5.24854 12.1311 5.24854C12.0137 5.24854 11.9011 5.295 11.8178 5.37778L6.88445 10.2889L4.21778 7.62222C4.13645 7.5344 4.02356 7.4825 3.90396 7.47791C3.78435 7.47333 3.66782 7.51644 3.58001 7.59778C3.49219 7.67911 3.44028 7.792 3.4357 7.9116C3.43111 8.03121 3.47423 8.14774 3.55556 8.23555L6.88445 11.5556L12.4444 6.00889C12.4861 5.96757 12.5192 5.91841 12.5417 5.86425C12.5643 5.8101 12.5759 5.752 12.5759 5.69333C12.5759 5.63466 12.5643 5.57657 12.5417 5.52241C12.5192 5.46825 12.4861 5.41909 12.4444 5.37778Z" fill="#706A6A"/>
</g>
<defs>
<clipPath id="clip0_279_5312">
<rect width="16" height="16" fill="white"/>
</clipPath>
</defs>
</svg>
