<svg width="24" height="24" viewBox="0 0 24 24" fill="none" xmlns="http://www.w3.org/2000/svg">
<g clip-path="url(#clip0_344_4650)">
<path d="M6.4704 1.34766C4.80437 2.21228 3.36441 3.45567 2.26622 4.97791C1.16803 6.50014 0.442249 8.25877 0.1472 10.1125H0.8432C5.3312 10.0085 8.8496 9.61966 11.7232 8.73966C10.4752 6.52686 8.952 4.35566 7.1248 2.14766L7.1232 2.14606L6.4704 1.34766ZM0.0032 11.7125L0 12.0005C0 15.2277 1.2736 18.1573 3.3456 20.3141L3.6032 19.7957L3.6512 19.7125C6.304 15.6773 9.3056 13.2773 12.6624 12.2005C12.8896 12.1269 13.1189 12.0597 13.3504 11.9989C13.0815 11.3828 12.795 10.7745 12.4912 10.1749C9.3472 11.1877 5.568 11.6037 0.8704 11.7109H0.0048" fill="#153B30"/>
<path d="M4.57605 21.4288C6.69027 23.098 9.30635 24.004 12.0001 24C13.4289 24 14.8001 23.7504 16.0689 23.2928V22.1408C15.6785 19.0448 14.9921 16.2048 13.9601 13.4944C13.6881 13.5616 13.4182 13.6379 13.1505 13.7232C10.2352 14.6592 7.51045 16.768 5.01445 20.552L4.57605 21.4288ZM17.6689 22.5792C19.2156 21.7495 20.5619 20.5909 21.6128 19.185C22.6638 17.7791 23.394 16.16 23.7521 14.4416L22.8481 14.0336C20.2465 13.2688 17.8225 12.9552 15.5633 13.2096C16.5841 15.9616 17.2704 18.8512 17.6624 21.9904C17.6667 22.0224 17.6689 22.0555 17.6689 22.0896V22.5792ZM23.9745 12.7872C23.9915 12.5269 24.0001 12.2645 24.0001 12C24.0045 9.12237 22.9705 6.33975 21.0881 4.16322L20.6112 4.68962C18.7393 6.96642 16.6017 8.54562 14.0033 9.62082C14.3425 10.2981 14.6587 10.9829 14.9521 11.6752C17.6273 11.2912 20.4401 11.6528 23.3537 12.5152L23.4577 12.5536L23.9745 12.7872ZM19.9616 3.02082C17.7687 1.07057 14.9348 -0.00466024 12.0001 1.51837e-05C10.5953 1.51837e-05 9.24805 0.240015 7.99525 0.684815L8.36005 1.12962C10.312 3.48642 11.9313 5.81602 13.2529 8.19842C15.7217 7.20162 17.6784 5.74402 19.3872 3.65922L19.4113 3.63042L19.9616 3.02082Z" fill="#153B30"/>
</g>
<defs>
<clipPath id="clip0_344_4650">
<rect width="24" height="24" fill="white"/>
</clipPath>
</defs>
</svg>
