<svg width="24" height="24" viewBox="0 0 24 24" fill="none" xmlns="http://www.w3.org/2000/svg">
<g clip-path="url(#clip0_344_4644)">
<path d="M21.75 0.562587H2.25C1.80756 0.558084 1.3814 0.729282 1.06504 1.03862C0.74867 1.34795 0.56794 1.77016 0.5625 2.21259V21.7913C0.568923 22.2331 0.750087 22.6544 1.06634 22.9629C1.3826 23.2714 1.8082 23.4421 2.25 23.4376H21.75C22.1925 23.4411 22.6183 23.2693 22.9345 22.9598C23.2507 22.6503 23.4316 22.2282 23.4375 21.7857V2.20696C23.4296 1.76583 23.2479 1.34564 22.9319 1.03772C22.6159 0.729808 22.1912 0.559058 21.75 0.562587ZM7.34437 20.0626H3.94875V9.13696H7.34437V20.0626ZM5.65688 7.64821C5.26741 7.64858 4.88659 7.53343 4.56259 7.31733C4.23858 7.10123 3.98595 6.79388 3.83665 6.43417C3.68735 6.07446 3.6481 5.67855 3.72385 5.29653C3.7996 4.9145 3.98696 4.56353 4.26222 4.28801C4.53748 4.01249 4.88827 3.8248 5.27023 3.74868C5.65218 3.67256 6.04812 3.71144 6.40797 3.86039C6.76783 4.00935 7.07541 4.26169 7.29182 4.58549C7.50824 4.90929 7.62375 5.29 7.62375 5.67946C7.62326 5.93832 7.57172 6.19454 7.4721 6.43345C7.37247 6.67237 7.2267 6.88929 7.04314 7.07181C6.85958 7.25433 6.64183 7.39885 6.40234 7.49711C6.16286 7.59538 5.90636 7.64545 5.6475 7.64446L5.65688 7.64821ZM20.0625 20.0626H16.6669V14.747C16.6669 13.4813 16.6444 11.852 14.9025 11.852C13.1606 11.852 12.8644 13.232 12.8644 14.6645V20.0626H9.47437V9.13696H12.7294V10.637H12.7744C13.2281 9.77821 14.3344 8.87259 15.9862 8.87259C19.425 8.86509 20.0625 11.1282 20.0625 14.0626V20.0626Z" fill="#153B30"/>
</g>
<defs>
<clipPath id="clip0_344_4644">
<rect width="24" height="24" fill="white"/>
</clipPath>
</defs>
</svg>
