<svg width="17" height="18" viewBox="0 0 17 18" fill="none" xmlns="http://www.w3.org/2000/svg">
<path d="M1.8 5.4V16.2H14.4V5.4H1.8ZM1.8 3.6H14.4V1.8H1.8V3.6ZM15.3 18H0.9C0.661305 18 0.432387 17.9052 0.263604 17.7364C0.0948211 17.5676 0 17.3387 0 17.1V0.9C0 0.661305 0.0948211 0.432387 0.263604 0.263604C0.432387 0.0948211 0.661305 0 0.9 0H15.3C15.5387 0 15.7676 0.0948211 15.9364 0.263604C16.1052 0.432387 16.2 0.661305 16.2 0.9V17.1C16.2 17.3387 16.1052 17.5676 15.9364 17.7364C15.7676 17.9052 15.5387 18 15.3 18ZM3.6 7.2H7.2V10.8H3.6V7.2ZM3.6 12.6H12.6V14.4H3.6V12.6ZM9 8.1H12.6V9.9H9V8.1Z" fill="#20232D"/>
</svg>
