<svg width="24" height="24" viewBox="0 0 24 24" fill="none" xmlns="http://www.w3.org/2000/svg">
<path d="M20.1 8.4V20.0937C20.1009 20.2119 20.0784 20.3291 20.0339 20.4386C19.9895 20.5481 19.9239 20.6478 19.8409 20.7319C19.7579 20.8161 19.6591 20.8831 19.5503 20.9291C19.4414 20.9751 19.3245 20.9992 19.2063 21H4.79372C4.55686 21 4.32968 20.906 4.1621 20.7386C3.99453 20.5712 3.90026 20.3441 3.90002 20.1072V3.8928C3.90002 3.4095 4.30412 3 4.80182 3H14.6973L20.1 8.4ZM18.3 9.3H13.8V4.8H5.70002V19.2H18.3V9.3ZM8.40002 7.5H11.1V9.3H8.40002V7.5ZM8.40002 11.1H15.6V12.9H8.40002V11.1ZM8.40002 14.7H15.6V16.5H8.40002V14.7Z" fill="white"/>
</svg>
