<svg width="290" height="79" viewBox="0 0 290 79" fill="none" xmlns="http://www.w3.org/2000/svg">
<path d="M108.639 58.0317H102.98V26.1721H90.9419V21.0767H120.677V26.1721H108.639V58.0317Z" fill="#16D166"/>
<path d="M127.374 44.0835V58.0317H122.178V30.7529H127.014V36.5175C128.918 32.7602 133.033 30.3926 137.509 30.3926V35.7969C131.644 35.4881 127.374 38.0616 127.374 44.0835Z" fill="#16D166"/>
<path d="M157.106 58.0317V53.8112C155.408 56.8479 152.373 58.5464 148.36 58.5464C142.701 58.5464 138.997 55.3038 138.997 50.3113C138.997 44.9585 143.267 42.1791 151.396 42.1791C152.99 42.1791 154.277 42.2306 156.489 42.4879V40.4806C156.489 36.5689 154.379 34.3558 150.778 34.3558C146.971 34.3558 144.656 36.6204 144.502 40.4292H139.769C140.026 34.3043 144.399 30.2382 150.778 30.2382C157.518 30.2382 161.427 34.0469 161.427 40.5321V58.0317H157.106ZM143.936 50.1569C143.936 52.9877 146.045 54.8406 149.389 54.8406C153.762 54.8406 156.489 52.1127 156.489 47.9437V45.7305C154.482 45.4732 153.042 45.4217 151.704 45.4217C146.508 45.4217 143.936 46.9658 143.936 50.1569Z" fill="#16D166"/>
<path d="M172.542 42.6423V58.0317H167.346V30.7529H172.182V35.2822C174.034 32.2455 177.12 30.2382 180.876 30.2382C186.483 30.2382 190.187 33.8411 190.187 40.3777V58.0317H184.991V42.1276C184.991 37.4439 182.934 34.819 179.075 34.819C175.526 34.819 172.542 37.8042 172.542 42.6423Z" fill="#16D166"/>
<path d="M216.688 58.0317H194.207V53.9656L209.692 35.2307H194.464V30.7529H216.174V34.9219L200.689 53.5024H216.688V58.0317Z" fill="#16D166"/>
<path d="M237.317 58.0317V53.8112C235.619 56.8479 232.584 58.5464 228.571 58.5464C222.912 58.5464 219.208 55.3038 219.208 50.3113C219.208 44.9585 223.478 42.1791 231.606 42.1791C233.201 42.1791 234.487 42.2306 236.699 42.4879V40.4806C236.699 36.5689 234.59 34.3558 230.989 34.3558C227.182 34.3558 224.867 36.6204 224.713 40.4292H219.98C220.237 34.3043 224.61 30.2382 230.989 30.2382C237.728 30.2382 241.638 34.0469 241.638 40.5321V58.0317H237.317ZM224.147 50.1569C224.147 52.9877 226.256 54.8406 229.6 54.8406C233.973 54.8406 236.699 52.1127 236.699 47.9437V45.7305C234.693 45.4732 233.253 45.4217 231.915 45.4217C226.719 45.4217 224.147 46.9658 224.147 50.1569Z" fill="#16D166"/>
<path d="M252.752 58.0317H247.556V21.0767H252.752V42.9512L264.431 30.7529H270.553L257.948 43.9805L271.736 58.0317H265.048L252.752 45.1129V58.0317Z" fill="#16D166"/>
<path d="M289.743 52.9877V57.5685C288.148 58.289 286.759 58.5464 285.112 58.5464C280.071 58.5464 276.572 55.8185 276.572 49.7966V35.1793H270.553L270.553 30.7529H276.572V22.6722H281.768V30.7529H290V35.1793H281.768V48.6128C281.768 52.3701 283.569 53.7083 286.347 53.7083C287.582 53.7083 288.662 53.5024 289.743 52.9877Z" fill="#16D166"/>
<path fill-rule="evenodd" clip-rule="evenodd" d="M30.8616 1.37524C34.1058 -0.458413 38.1015 -0.458413 41.3457 1.37524L66.9582 15.8517C70.2061 17.6875 72.2073 21.0821 72.2073 24.756V53.6962C72.2073 57.3701 70.2061 60.7647 66.9582 62.6005L41.3457 77.077C38.1015 78.9106 34.1058 78.9106 30.8616 77.077L5.24906 62.6005C2.00117 60.7647 0 57.3701 0 53.6962V24.756C0 21.0821 2.00117 17.6875 5.24906 15.8518L30.8616 1.37524ZM68.5896 40.9007C64.1726 40.8872 59.7449 39.1382 55.6395 36.6225C57.8954 39.161 60.2018 41.6934 62.339 44.0086C64.7561 46.6271 66.9474 48.9581 68.5896 50.6917V40.9007ZM68.311 55.5947L68.2243 55.5041C67.7554 55.0144 67.077 54.304 66.2377 53.419C64.5592 51.6495 62.2358 49.1813 59.6559 46.3863C54.5078 40.8091 48.2972 33.8871 44.1625 28.6203C39.2641 22.3807 36.512 18.7827 35.0394 16.8257C34.8281 16.5491 34.6369 16.2959 34.467 16.0686L34.0909 16.2743C33.0133 16.8634 31.5693 17.6529 30.103 18.454C27.1854 20.0479 24.1409 21.7093 23.7678 21.9047C19.5633 24.1073 16.0065 23.5255 13.4143 22.0688C11.0046 20.7148 9.53353 18.6767 9.01335 17.8161L7.05658 18.9222C4.92871 20.1249 3.61768 22.349 3.61768 24.756V51.4791C5.54114 48.6171 9.43361 47.6873 12.5018 49.423C13.5177 49.9977 14.3204 50.7951 14.883 51.7159C17.0166 49.4734 20.5189 48.8828 23.3443 50.4812C25.7045 51.8163 26.9508 54.316 26.7638 56.8117C28.0423 56.7235 29.3604 56.9954 30.5538 57.6706C32.756 58.9163 33.9568 61.2087 33.8796 63.5362C35.222 63.4117 36.6156 63.6802 37.8722 64.3912C38.596 64.8007 39.2128 65.3219 39.713 65.9199C39.7452 65.9484 39.7768 65.9782 39.8075 66.0094L44.7587 71.0383L50.5135 67.7834L44.0259 60.6177C43.363 59.8855 43.4315 58.7653 44.1787 58.1157C44.9261 57.4661 46.0693 57.5332 46.7322 58.2655L53.711 65.9737L59.69 62.5868L53.0499 55.8523C52.3558 55.1483 52.3755 54.0263 53.094 53.3462C53.8124 52.6661 54.9575 52.6854 55.6516 53.3894L62.9388 60.7802L65.1507 59.53C66.7024 58.653 67.8197 57.2328 68.311 55.5947ZM41.5404 72.8748L40.195 73.6353L40.3351 73.3976C40.562 73.0126 40.7446 72.6145 40.8848 72.209L41.5404 72.8748ZM35.2956 74.8609L37.2022 71.6252C38.0613 70.1671 37.5514 68.3028 36.0635 67.461C34.5826 66.6232 32.6908 67.114 31.8259 68.5559L29.6273 72.2872L32.6692 74.0066C33.4902 74.4706 34.3845 74.7553 35.2956 74.8609ZM28.6988 66.7737C28.6927 66.7839 28.6866 66.7942 28.6806 66.8044L26.4937 70.516L21.2293 67.5405L24.594 61.8301C25.4332 60.406 27.2916 59.9181 28.745 60.7403C30.1984 61.5625 30.6964 63.3836 29.8573 64.8077L28.6988 66.7737ZM12.4551 62.5812L18.0956 65.7694L22.7272 57.9088C23.6263 56.3829 23.0928 54.4319 21.5355 53.5509C19.9783 52.67 17.9871 53.1929 17.088 54.7186L12.4551 62.5812ZM9.32591 60.8026L9.32145 60.8101L7.05658 59.53C5.978 58.9204 5.10932 58.0484 4.51474 57.0231L6.54201 53.5827C7.38116 52.1585 9.23962 51.6705 10.693 52.4928C12.1464 53.315 12.6444 55.136 11.8053 56.5601L9.43728 60.5789C9.39436 60.652 9.35727 60.7266 9.32591 60.8026ZM32.8139 4.12297C34.9394 2.92165 37.5573 2.92165 39.6827 4.12297L65.2954 18.5996C67.4233 19.8022 68.7344 22.0263 68.7344 24.4334V37.0334C62.8864 37.0104 56.4598 33.0927 50.7023 28.0573C45.0164 23.0844 40.354 17.3542 38.0879 14.389C37.5292 13.6465 37.1618 13.1496 36.9357 12.8405C36.8224 12.6856 36.6815 12.4895 36.6331 12.4221C36.1041 11.6681 35.0761 11.4325 34.2607 11.8784C31.3141 13.4883 22.5426 18.2802 22.2068 18.4561C19.1761 20.0439 16.9447 19.5625 15.3586 18.6713C13.714 17.7471 12.6475 16.299 12.292 15.7221L32.8139 4.12297Z" fill="#16D166"/>
</svg>
