<svg width="143" height="87" viewBox="0 0 143 87" fill="none" xmlns="http://www.w3.org/2000/svg">
<path d="M120.441 86.5773C120.385 87.5361 120.253 88.4772 120.057 89.4037C117.363 102.067 102.105 111.771 83.6922 111.771C65.2797 111.771 50.019 102.07 47.3245 89.4037C47.0695 88.2045 46.9287 86.979 46.9053 85.7329V85.774C46.9287 87.02 47.0695 88.2456 47.3245 89.4447C50.019 102.108 65.2768 111.812 83.6922 111.812C102.108 111.812 117.363 102.111 120.057 89.4447C120.253 88.5182 120.385 87.5771 120.441 86.6184C120.447 86.5069 120.453 86.3955 120.459 86.2841C120.456 86.3809 120.447 86.4776 120.441 86.5744V86.5773Z" fill="#E9E454" stroke="#231F20" stroke-width="0.178848" stroke-miterlimit="10"/>
<path d="M83.6922 59.0581C63.3945 59.0581 46.9346 70.8445 46.9023 85.3957V85.4367C46.9023 85.5335 46.9023 85.6361 46.9023 85.7358C46.9258 86.9818 47.0665 88.2074 47.3216 89.4065C50.0161 102.07 65.2738 111.774 83.6893 111.774C102.105 111.774 117.36 102.072 120.054 89.4065C120.251 88.4801 120.382 87.5389 120.438 86.5802C120.444 86.4805 120.45 86.3867 120.456 86.2899C120.467 86.0055 120.476 85.724 120.476 85.4396V85.3986C120.444 70.8503 103.987 59.061 83.6893 59.061L83.6922 59.0581ZM111.991 87.7207C110.411 97.9209 98.3402 105.855 83.6922 105.855C69.0443 105.855 56.9735 97.9209 55.3932 87.7207C55.2759 86.9701 55.2173 86.2078 55.2173 85.4367C55.2173 80.3234 57.8385 75.647 62.1719 72.0642C67.3936 67.7484 75.0987 65.0187 83.6922 65.0187C92.2857 65.0187 99.9908 67.7484 105.21 72.0642C109.543 75.647 112.167 80.3234 112.167 85.4396C112.167 86.2107 112.109 86.973 111.991 87.7236V87.7207Z" fill="#E9E454" stroke="#231F20" stroke-width="0.216963" stroke-miterlimit="10"/>
<path d="M112.166 85.437C112.166 86.2081 112.108 86.9704 111.99 87.721C111.336 83.5049 108.888 79.6728 105.209 76.6324C99.9898 72.3196 92.2847 69.587 83.6912 69.587C75.0977 69.587 67.3926 72.3166 62.1709 76.6324C58.4913 79.6728 56.046 83.5019 55.3922 87.7181C55.2749 86.9675 55.2163 86.2052 55.2163 85.4341C55.2163 80.3208 57.8375 75.6444 62.1709 72.0615C67.3926 67.7457 75.0977 65.0161 83.6912 65.0161C92.2847 65.0161 99.9898 67.7457 105.209 72.0615C109.542 75.6444 112.166 80.3208 112.166 85.437Z" fill="#E9E454" stroke="#231F20" stroke-width="0.216963" stroke-miterlimit="10"/>
<path d="M111.991 87.7209C110.411 97.9211 98.34 105.855 83.6921 105.855C69.0442 105.855 56.9734 97.9211 55.3931 87.7209C56.0469 83.5048 58.4921 79.6757 62.1717 76.6353C67.3935 72.3195 75.0986 69.5898 83.6921 69.5898C92.2856 69.5898 99.9907 72.3195 105.21 76.6353C108.889 79.6757 111.334 83.5077 111.991 87.7238V87.7209Z" fill="#E9E454" stroke="#231F20" stroke-width="0.216963" stroke-miterlimit="10"/>
<path d="M120.479 85.437V93.4148C120.479 107.984 104.008 119.793 83.6922 119.793C63.3769 119.793 46.9023 107.984 46.9023 93.4148V85.437C46.9023 85.5338 46.9023 85.6364 46.9023 85.7361V85.7771C46.9258 87.0232 47.0665 88.2487 47.3216 89.4479C50.0161 102.111 65.2738 111.816 83.6893 111.816C102.105 111.816 117.36 102.114 120.054 89.4479C120.251 88.5214 120.382 87.5803 120.438 86.6215C120.444 86.5101 120.45 86.3987 120.456 86.2873C120.467 86.0029 120.476 85.7214 120.476 85.437H120.479Z" fill="#E9E454" stroke="#231F20" stroke-width="0.216963" stroke-linecap="round" stroke-linejoin="round"/>
<path d="M46.9023 85.3961V83.9302" stroke="#231F20" stroke-width="0.178848" stroke-miterlimit="10"/>
<path d="M89.1348 87.0997V87.0674H89.1406L89.1348 86.9883H89.123L89.1318 87.0704V87.1026L89.1406 87.1642L89.1348 87.1026V87.0997ZM70.0361 88.466L70.0303 88.3839H70.0215L70.0273 88.463V88.4953H70.0332V88.463H70.0391L70.0361 88.466ZM70.6753 95.0775L70.3381 91.5826L70.2384 90.5535L70.2326 90.4714L70.1358 89.498L70.13 89.4394H70.1182L70.1241 89.5009L70.1358 89.6153L70.2179 90.4773L70.2267 90.5564L70.3264 91.5885L70.6636 95.0804L70.7545 96.0216H70.7662L70.6753 95.0804V95.0775Z" fill="#E9E454" stroke="#0C0C0C" stroke-width="0.216963" stroke-linecap="round" stroke-linejoin="round"/>
<path d="M82.9914 88.5922L81.8391 88.6773L77.8751 88.9675H77.8634L77.8693 89.0496H77.881L81.9359 88.7535L83.0881 88.6685L82.9884 88.5952L82.9914 88.5922ZM99.4161 87.3872L96.9591 87.566H96.9444L96.9532 87.6481H96.965L99.4219 87.4693L99.4161 87.3872ZM99.1932 85.3026L96.7568 85.4814H96.7451L96.7509 85.5635H96.7627L99.1991 85.3847L99.1932 85.3026ZM96.1118 78.8699L96.0121 77.8408H96.0033L96.0121 77.9317L96.6424 84.4553H96.6483L96.1088 78.8729L96.1118 78.8699ZM89.0399 86.1265L89.0341 86.0473H89.0224L87.3248 86.1704L87.4244 86.2467L89.0341 86.1294L89.1162 86.9885H89.125L89.0429 86.1265H89.0399ZM81.7248 87.6423L80.6693 87.7185L80.7426 87.7742L81.7981 87.698L81.7248 87.6423ZM80.4347 86.6747L79.2825 86.7598L77.6728 86.88H77.6611L77.667 86.9621H77.6787L79.3792 86.836L80.5315 86.751L80.4318 86.6747H80.4347ZM77.7696 87.9325H77.7637L77.7696 87.9941H77.7755L77.7696 87.9325ZM69.9384 87.525L69.9325 87.4429H69.9208L67.4814 87.6218L67.4873 87.7038L69.9267 87.525L70.0088 88.387H70.0205L69.9384 87.525ZM96.8535 86.5369H96.8477H96.8535Z" fill="#E9E454"/>
<path d="M96.8535 86.5369H96.8477M82.9914 88.5922L81.8391 88.6773L77.8751 88.9675H77.8634L77.8693 89.0496H77.881L81.9359 88.7535L83.0881 88.6685L82.9884 88.5952L82.9914 88.5922ZM99.4161 87.3872L96.9591 87.566H96.9444L96.9532 87.6481H96.965L99.4219 87.4693L99.4161 87.3872ZM99.1932 85.3026L96.7568 85.4814H96.7451L96.7509 85.5635H96.7627L99.1991 85.3847L99.1932 85.3026ZM96.1118 78.8699L96.0121 77.8408H96.0033L96.0121 77.9317L96.6424 84.4553H96.6483L96.1088 78.8729L96.1118 78.8699ZM89.0399 86.1265L89.0341 86.0473H89.0224L87.3248 86.1704L87.4244 86.2467L89.0341 86.1294L89.1162 86.9885H89.125L89.0429 86.1265H89.0399ZM81.7248 87.6423L80.6693 87.7185L80.7426 87.7742L81.7981 87.698L81.7248 87.6423ZM80.4347 86.6747L79.2825 86.7598L77.6728 86.88H77.6611L77.667 86.9621H77.6787L79.3792 86.836L80.5315 86.751L80.4318 86.6747H80.4347ZM77.7696 87.9325H77.7637L77.7696 87.9941H77.7755L77.7696 87.9325ZM69.9384 87.525L69.9325 87.4429H69.9208L67.4814 87.6218L67.4873 87.7038L69.9267 87.525L70.0088 88.387H70.0205L69.9384 87.525Z" stroke="#0C0C0C" stroke-width="0.216963" stroke-linecap="round" stroke-linejoin="round"/>
<path d="M96.8565 86.4228H96.8448L96.8507 86.5049L96.8536 86.5371H96.8448L96.751 85.5637H96.7627L99.1991 85.3849L99.1933 85.3028L99.1845 85.2119H99.1903L99.293 86.244L96.8565 86.4228Z" fill="#E9E454" stroke="#0C0C0C" stroke-width="0.216963" stroke-linecap="round" stroke-linejoin="round"/>
<path d="M99.2933 86.2437L96.8569 86.4225H96.8452L96.851 86.5046H96.8628L99.2992 86.3257L99.2933 86.2437ZM80.5319 87.6158L79.3796 87.7008L77.77 87.821H77.7583L77.7642 87.9031H77.7759L79.4764 87.7771L80.6286 87.692L80.529 87.6158H80.5319ZM89.1313 86.9884H89.1107L88.4716 87.0353L88.5713 87.1115L89.1166 87.0705H89.1342L89.1283 86.9884H89.1313ZM70.0297 88.384H70.0209H70.0092L67.5786 88.5628L67.5845 88.6449L70.015 88.4661H70.0356L70.0297 88.384Z" fill="#E9E454" stroke="#0C0C0C" stroke-width="0.216963" stroke-linecap="round" stroke-linejoin="round"/>
<path d="M89.1343 87.0994V87.0672L89.1226 86.9851L89.0405 86.1231L89.0347 86.0439H89.0229L89.0317 86.126L89.1138 86.9851L89.1226 87.0672V87.0994L89.1285 87.161H89.1402L89.1343 87.0994ZM70.0299 88.4657L70.0211 88.3866L69.939 87.5246L69.9331 87.4425H69.9214L69.9273 87.5246L70.0093 88.3866L70.0181 88.4657V88.498H70.0328V88.4657H70.0299ZM70.238 90.6441L70.2292 90.5533L70.1413 89.6121L70.1354 89.53L70.1266 89.4391H70.112L70.1208 89.5329L70.1296 89.6121L70.2175 90.5533L70.2263 90.6441L70.6544 95.0772H70.6661L70.238 90.6412V90.6441Z" fill="#E9E454" stroke="#0C0C0C" stroke-width="0.216963" stroke-linecap="round" stroke-linejoin="round"/>
<path d="M70.3376 91.5855L70.238 90.5564L70.2321 90.4743L70.1353 89.5009L70.1295 89.4423H70.1236L70.1324 89.5332L70.1383 89.6153L70.2262 90.5564L70.235 90.6473L70.6631 95.0833H70.669L70.3318 91.5885L70.3376 91.5855ZM70.0298 88.3839H70.021L70.0298 88.466H70.0357L70.0298 88.3839ZM81.825 88.5833L80.6727 88.6683L77.8786 88.8735H77.8639L77.8698 88.9351H77.8815L80.7431 88.7269L81.8953 88.6419L81.822 88.5862L81.825 88.5833ZM89.1313 86.9883H89.1225L89.1313 87.0704H89.1372L89.1313 86.9883ZM99.4048 87.2961L96.9567 87.475H96.9449L96.9508 87.5366H96.9625L99.4107 87.3577L99.4048 87.2961Z" fill="#E9E454" stroke="#0C0C0C" stroke-width="0.216963" stroke-linecap="round" stroke-linejoin="round"/>
<path d="M96.9567 87.4749L99.4049 87.296L99.4108 87.3576L96.9626 87.5365H96.9509L96.945 87.4749H96.9567ZM77.5591 85.8477L77.4213 84.4228L79.1687 85.7304L78.1132 85.8066L78.0135 85.8125L77.5708 85.8447H77.5561L77.5591 85.8477ZM77.7702 87.9938L77.7643 87.9323L77.6705 86.9618L77.6646 86.8797H77.6763L79.286 86.7595L80.4382 86.6745L80.5379 86.7507L81.7283 87.642L81.8016 87.6977L80.7461 87.774L80.6464 87.7827L77.7848 87.9909H77.7731L77.7702 87.9938ZM80.7461 88.7239L77.8845 88.9321H77.8728L77.8669 88.8705H77.8816L80.6757 88.6653L81.828 88.5802L81.9013 88.6359L80.749 88.721L80.7461 88.7239ZM88.6887 87.1934L88.6154 87.1377L88.5773 87.1084L88.4776 87.0322L87.425 86.2435L87.3253 86.1673L89.0229 86.0441H89.0347L89.0405 86.1233L89.1226 86.9853H89.1314L89.1373 87.0644H89.1314V87.0967L89.1373 87.1582H89.1255L89.1637 87.5511L88.6828 87.1876L88.6887 87.1934ZM96.8453 86.5367L96.7515 85.5662L96.7456 85.4841H96.7574L99.1938 85.3053L99.185 85.2144L99.0941 84.2732L96.6577 84.4521H96.646L96.0156 77.9315L96.0068 77.8406L95.9188 76.8994L88.1961 77.4653L88.9291 85.015L86.0675 85.2232L76.8349 78.295L69.0916 78.8609L69.8217 86.4106L67.3735 86.5894L67.482 87.7036H67.4908L67.485 87.6215L69.9243 87.4426H69.936L69.9419 87.5218L70.024 88.3838H70.0328L70.0387 88.463H70.0328V88.4952H70.0269L67.5993 88.6741L67.6052 88.7356L67.7078 89.7882H67.7136L67.7019 89.6738L67.696 89.6123L70.112 89.4334H70.1325L70.1384 89.4921L70.2351 90.4655L70.241 90.5476L70.3407 91.5767L70.6778 95.0715L78.4035 94.5027L77.9754 90.0697L77.8757 89.0376L77.8699 88.9585H77.8816L81.8456 88.6682L82.9978 88.5832L83.0975 88.6565L84.3612 89.6035L89.7911 93.6701L97.4904 93.1071L97.0623 88.677L96.9626 87.642L96.9538 87.5629H96.9685L99.4254 87.3811L99.4166 87.2902L99.3257 86.349H99.3169" fill="#E9E454"/>
<path d="M96.8453 86.5367L96.7515 85.5662L96.7456 85.4841H96.7574L99.1938 85.3053L99.185 85.2144L99.0941 84.2732L96.6577 84.4521H96.646L96.0156 77.9315L96.0068 77.8406L95.9188 76.8994L88.1961 77.4653L88.9291 85.015L86.0675 85.2232L76.8349 78.295L69.0916 78.8609L69.8217 86.4106L67.3735 86.5894L67.482 87.7036H67.4908L67.485 87.6215L69.9243 87.4426H69.936L69.9419 87.5218L70.024 88.3838H70.0328L70.0387 88.463H70.0328V88.4952H70.0269L67.5993 88.6741L67.6052 88.7356L67.7078 89.7882H67.7136L67.7019 89.6738L67.696 89.6123L70.112 89.4334H70.1325L70.1384 89.4921L70.2351 90.4655L70.241 90.5476L70.3407 91.5767L70.6778 95.0715L78.4035 94.5027L77.9754 90.0697L77.8757 89.0376L77.8699 88.9585H77.8816L81.8456 88.6682L82.9978 88.5832L83.0975 88.6565L84.3612 89.6035L89.7911 93.6701L97.4904 93.1071L97.0623 88.677L96.9626 87.642L96.9538 87.5629H96.9685L99.4254 87.3811L99.4166 87.2902L99.3257 86.349H99.3169M96.9567 87.4749L99.4049 87.296L99.4108 87.3576L96.9626 87.5365H96.9509L96.945 87.4749H96.9567ZM77.5591 85.8477L77.4213 84.4228L79.1687 85.7304L78.1132 85.8066L78.0135 85.8125L77.5708 85.8447H77.5561L77.5591 85.8477ZM77.7702 87.9938L77.7643 87.9323L77.6705 86.9618L77.6646 86.8797H77.6763L79.286 86.7595L80.4382 86.6745L80.5379 86.7507L81.7283 87.642L81.8016 87.6977L80.7461 87.774L80.6464 87.7827L77.7848 87.9909H77.7731L77.7702 87.9938ZM80.7461 88.7239L77.8845 88.9321H77.8728L77.8669 88.8705H77.8816L80.6757 88.6653L81.828 88.5802L81.9013 88.6359L80.749 88.721L80.7461 88.7239ZM88.6887 87.1934L88.6154 87.1377L88.5773 87.1084L88.4776 87.0322L87.425 86.2435L87.3253 86.1673L89.0229 86.0441H89.0347L89.0405 86.1233L89.1226 86.9853H89.1314L89.1373 87.0644H89.1314V87.0967L89.1373 87.1582H89.1255L89.1637 87.5511L88.6828 87.1876L88.6887 87.1934Z" stroke="#0C0C0C" stroke-width="0.216963" stroke-linecap="round" stroke-linejoin="round"/>
<path d="M81.7256 87.6421L80.6701 87.7183L80.5704 87.7242L77.7763 87.9294H77.7616L77.7675 87.991H77.7792L80.6408 87.7828L80.7405 87.774L81.796 87.6978L81.7227 87.6421H81.7256ZM89.1316 87.1613H89.1434L89.1375 87.0997H89.1287L88.6186 87.1378L88.6919 87.1935L89.1727 87.5571L89.1346 87.1642L89.1316 87.1613ZM99.4169 87.387L96.9599 87.5659H96.9452L96.954 87.648H96.9658L99.4227 87.4691L99.4169 87.387ZM82.9922 88.592L81.8399 88.6771L77.876 88.9673H77.8642L77.8701 89.0494H77.8818L81.9367 88.7533L83.0889 88.6683L82.9892 88.595L82.9922 88.592ZM70.1327 89.5332L70.1239 89.4423H70.1093L67.6934 89.6212L67.6992 89.6827L67.711 89.7971L70.1269 89.6182H70.1386L70.1327 89.5361V89.5332ZM99.3084 86.355L96.8602 86.5338H96.8485" fill="#E9E454"/>
<path d="M99.3084 86.355L96.8602 86.5338H96.8485M81.7256 87.6421L80.6701 87.7183L80.5704 87.7242L77.7763 87.9294H77.7616L77.7675 87.991H77.7792L80.6408 87.7828L80.7405 87.774L81.796 87.6978L81.7227 87.6421H81.7256ZM89.1316 87.1613H89.1434L89.1375 87.0997H89.1287L88.6186 87.1378L88.6919 87.1935L89.1727 87.5571L89.1346 87.1642L89.1316 87.1613ZM99.4169 87.387L96.9599 87.5659H96.9452L96.954 87.648H96.9658L99.4227 87.4691L99.4169 87.387ZM82.9922 88.592L81.8399 88.6771L77.876 88.9673H77.8642L77.8701 89.0494H77.8818L81.9367 88.7533L83.0889 88.6683L82.9892 88.595L82.9922 88.592ZM70.1327 89.5332L70.1239 89.4423H70.1093L67.6934 89.6212L67.6992 89.6827L67.711 89.7971L70.1269 89.6182H70.1386L70.1327 89.5361V89.5332Z" stroke="#0C0C0C" stroke-width="0.216963" stroke-linecap="round" stroke-linejoin="round"/>
<path d="M99.1932 85.3027L96.7568 85.4816H96.7451L96.7509 85.5637H96.7627L99.1991 85.3848L99.1932 85.3027ZM80.4347 86.6749L79.2825 86.7599L77.6729 86.8801H77.6611L77.667 86.9622H77.6787L79.3792 86.8361L80.5315 86.7511L80.4318 86.6749H80.4347ZM89.0341 86.0474H89.0224L87.3248 86.1706L87.4245 86.2468L89.0341 86.1295H89.0429L89.037 86.0474H89.0341ZM69.9296 87.446H69.9179L67.4785 87.6248L67.4844 87.7069L69.9238 87.5281H69.9355L69.9296 87.446Z" fill="#E9E454" stroke="#0C0C0C" stroke-width="0.216963" stroke-linecap="round" stroke-linejoin="round"/>
<path d="M105.458 47.465C105.402 48.4237 105.27 49.3649 105.074 50.2914C102.379 62.9544 87.1214 72.6591 68.7088 72.6591C50.2963 72.6591 35.0356 62.9573 32.3411 50.2914C32.0861 49.0922 31.9453 47.8667 31.9219 46.6206V46.6617C31.9453 47.9077 32.0861 49.1333 32.3411 50.3324C35.0356 62.9955 50.2934 72.7002 68.7088 72.7002C87.1243 72.7002 102.379 62.9984 105.074 50.3324C105.27 49.4059 105.402 48.4648 105.458 47.5061C105.464 47.3946 105.469 47.2832 105.475 47.1718C105.472 47.2686 105.464 47.3653 105.458 47.4621V47.465Z" fill="#E9E454" stroke="#231F20" stroke-width="0.178848" stroke-miterlimit="10"/>
<path d="M68.7093 19.9458C48.4116 19.9458 31.9517 31.7322 31.9194 46.2834V46.3244C31.9194 46.4212 31.9194 46.5238 31.9194 46.6235C31.9429 47.8695 32.0836 49.0951 32.3387 50.2942C35.0331 62.9573 50.2909 72.662 68.7064 72.662C87.1219 72.662 102.377 62.9602 105.071 50.2942C105.268 49.3677 105.4 48.4266 105.455 47.4679C105.461 47.3682 105.467 47.2743 105.473 47.1776C105.485 46.8932 105.493 46.6117 105.493 46.3273V46.2863C105.461 31.738 89.0042 19.9487 68.7064 19.9487L68.7093 19.9458ZM97.0054 48.6084C95.4251 58.8086 83.3543 66.7424 68.7064 66.7424C54.0585 66.7424 41.9877 58.8086 40.4074 48.6084C40.2901 47.8578 40.2315 47.0955 40.2315 46.3244C40.2315 41.2111 42.8526 36.5347 47.186 32.9519C52.4078 28.636 60.1129 25.9064 68.7064 25.9064C77.2999 25.9064 85.005 28.636 90.2239 32.9519C94.5573 36.5347 97.1813 41.2111 97.1813 46.3273C97.1813 47.0984 97.1227 47.8607 97.0054 48.6113V48.6084Z" fill="#E9E454" stroke="#231F20" stroke-width="0.216963" stroke-miterlimit="10"/>
<path d="M97.1833 46.3247C97.1833 47.0958 97.1246 47.8581 97.0073 48.6087C96.3535 44.3926 93.9054 40.5605 90.2258 37.5201C85.0069 33.2073 77.3018 30.4747 68.7083 30.4747C60.1148 30.4747 52.4097 33.2043 47.1879 37.5201C43.5084 40.5605 41.0631 44.3896 40.4093 48.6058C40.292 47.8552 40.2334 47.0929 40.2334 46.3218C40.2334 41.2085 42.8545 36.5321 47.1879 32.9492C52.4097 28.6334 60.1148 25.9038 68.7083 25.9038C77.3018 25.9038 85.0069 28.6334 90.2258 32.9492C94.5592 36.5321 97.1833 41.2085 97.1833 46.3247Z" fill="#E9E454" stroke="#231F20" stroke-width="0.216963" stroke-miterlimit="10"/>
<path d="M97.0057 48.6086C95.4254 58.8088 83.3547 66.7426 68.7067 66.7426C54.0588 66.7426 41.988 58.8088 40.4077 48.6086C41.0615 44.3925 43.5068 40.5634 47.1863 37.523C52.4081 33.2072 60.1132 30.4775 68.7067 30.4775C77.3002 30.4775 85.0053 33.2072 90.2242 37.523C93.9038 40.5634 96.349 44.3954 97.0057 48.6115V48.6086Z" fill="#E9E454" stroke="#231F20" stroke-width="0.216963" stroke-miterlimit="10"/>
<path d="M105.496 46.3242V54.302C105.496 68.8708 89.0247 80.6806 68.7093 80.6806C48.394 80.6806 31.9194 68.8708 31.9194 54.302V46.3242C31.9194 46.421 31.9194 46.5236 31.9194 46.6233V46.6643C31.9429 47.9104 32.0836 49.1359 32.3387 50.3351C35.0331 62.9981 50.2909 72.7028 68.7064 72.7028C87.1219 72.7028 102.377 63.001 105.071 50.3351C105.268 49.4086 105.4 48.4675 105.455 47.5087C105.461 47.3973 105.467 47.2859 105.473 47.1745C105.485 46.8901 105.493 46.6086 105.493 46.3242H105.496Z" fill="#E9E454" stroke="#231F20" stroke-width="0.216963" stroke-linecap="round" stroke-linejoin="round"/>
<path d="M31.9194 46.2833V44.8174" stroke="#231F20" stroke-width="0.178848" stroke-miterlimit="10"/>
<path d="M74.1509 47.9908V47.9586H74.1567L74.1509 47.8794H74.1391L74.1479 47.9615V47.9937L74.1567 48.0553L74.1509 47.9937V47.9908ZM55.0523 49.3542L55.0464 49.2721H55.0376L55.0435 49.3512V49.3835H55.0493V49.3512H55.0552L55.0523 49.3542ZM55.6914 55.9686L55.3542 52.4737L55.2546 51.4446L55.2487 51.3625L55.1519 50.3891L55.1461 50.3305H55.1344L55.1402 50.3921L55.1519 50.5064L55.234 51.3684L55.2428 51.4476L55.3425 52.4796L55.6797 55.9715L55.7706 56.9127H55.7823L55.6914 55.9715V55.9686Z" fill="#E9E454" stroke="#0C0C0C" stroke-width="0.216963" stroke-linecap="round" stroke-linejoin="round"/>
<path d="M68.008 49.4799L66.8557 49.5649L62.8917 49.8552H62.88L62.8859 49.9373H62.8976L66.9525 49.6412L68.1047 49.5561L68.005 49.4828L68.008 49.4799ZM84.4327 48.2778L81.9757 48.4567H81.961L81.9698 48.5388H81.9816L84.4385 48.3599L84.4327 48.2778ZM84.2098 46.1903L81.7734 46.3691H81.7617L81.7675 46.4512H81.7793L84.2157 46.2724L84.2098 46.1903ZM81.1284 39.7576L81.0287 38.7285H81.0199L81.0287 38.8194L81.659 45.343H81.6649L81.1254 39.7606L81.1284 39.7576ZM74.0565 47.0171L74.0507 46.9379H74.039L72.3414 47.0611L72.4411 47.1373L74.0507 47.02L74.1328 47.8791H74.1416L74.0595 47.0171H74.0565ZM66.7414 48.5329L65.6859 48.6091L65.7592 48.6648L66.8147 48.5886L66.7414 48.5329ZM65.4513 47.5654L64.2991 47.6504L62.6894 47.7706H62.6777L62.6836 47.8527H62.6953L64.3958 47.7266L65.5481 47.6416L65.4484 47.5654H65.4513ZM62.7862 48.8202H62.7803L62.7862 48.8818H62.7921L62.7862 48.8202ZM54.9521 48.4156L54.9462 48.3335H54.9345L52.4951 48.5124L52.501 48.5945L54.9403 48.4156L55.0224 49.2776H55.0342L54.9521 48.4156ZM81.8701 47.4246H81.8643H81.8701Z" fill="#E9E454"/>
<path d="M81.8701 47.4246H81.8643M68.008 49.4799L66.8557 49.5649L62.8917 49.8552H62.88L62.8859 49.9373H62.8976L66.9525 49.6412L68.1047 49.5561L68.005 49.4828L68.008 49.4799ZM84.4327 48.2778L81.9757 48.4567H81.961L81.9698 48.5388H81.9816L84.4385 48.3599L84.4327 48.2778ZM84.2098 46.1903L81.7734 46.3691H81.7617L81.7675 46.4512H81.7793L84.2157 46.2724L84.2098 46.1903ZM81.1284 39.7576L81.0287 38.7285H81.0199L81.0287 38.8194L81.659 45.343H81.6649L81.1254 39.7606L81.1284 39.7576ZM74.0565 47.0171L74.0507 46.9379H74.039L72.3414 47.0611L72.4411 47.1373L74.0507 47.02L74.1328 47.8791H74.1416L74.0595 47.0171H74.0565ZM66.7414 48.5329L65.6859 48.6091L65.7592 48.6648L66.8147 48.5886L66.7414 48.5329ZM65.4513 47.5654L64.2991 47.6504L62.6894 47.7706H62.6777L62.6836 47.8527H62.6953L64.3958 47.7266L65.5481 47.6416L65.4484 47.5654H65.4513ZM62.7862 48.8202H62.7803L62.7862 48.8818H62.7921L62.7862 48.8202ZM54.9521 48.4156L54.9462 48.3335H54.9345L52.4951 48.5124L52.501 48.5945L54.9403 48.4156L55.0224 49.2776H55.0342L54.9521 48.4156Z" stroke="#0C0C0C" stroke-width="0.216963" stroke-linecap="round" stroke-linejoin="round"/>
<path d="M52.5943 49.4539L52.6002 49.536H52.5914L52.5005 48.5949H52.5034L54.9399 48.416L55.0219 49.2751L52.5943 49.4539Z" fill="#E9E454" stroke="#0C0C0C" stroke-width="0.216963" stroke-linecap="round" stroke-linejoin="round"/>
<path d="M81.8726 47.3105H81.858L81.8668 47.3926L81.8697 47.4248H81.8609L81.7671 46.4544L81.7788 46.4514L84.2152 46.2726L84.2094 46.1905L84.2006 46.1025H84.2065L84.3091 47.1316L81.8726 47.3105Z" fill="#E9E454" stroke="#0C0C0C" stroke-width="0.216963" stroke-linecap="round" stroke-linejoin="round"/>
<path d="M82.1687 50.512L82.5968 54.9451L74.8975 55.5081L69.4676 51.4415L68.2039 50.4944L68.1042 50.4211L66.952 50.5032L62.988 50.7935L62.9763 50.7964L62.9851 50.8756L63.0848 51.9076L63.5128 56.3407L55.7813 56.9066L55.6904 55.9684L63.4161 55.3996L62.988 50.9665L62.8854 49.9344H62.8971L66.952 49.6383L68.1042 49.5533L69.3679 50.5003L74.7978 54.5669L82.4971 54.004L82.069 49.5738L81.9693 48.5388H81.9811L84.441 48.3571L84.4322 48.2779L84.4234 48.1841H84.4292L84.5319 49.2161L82.0749 49.3979H82.0602L82.069 49.48L82.1687 50.512Z" fill="#E9E454" stroke="#0C0C0C" stroke-width="0.216963" stroke-linecap="round" stroke-linejoin="round"/>
<path d="M55.249 51.3623L55.1523 50.3889L55.1464 50.3303H55.1259L52.71 50.5091L52.7158 50.5707L52.7276 50.685L52.8184 51.6262H52.8272L55.2344 51.4473H55.2549L55.249 51.3652V51.3623ZM68.1055 50.4211L66.9533 50.5062L62.9893 50.7964H62.9776L62.9835 50.8785H62.9952L67.05 50.5824L68.2023 50.4974L68.1026 50.4241L68.1055 50.4211ZM84.5332 49.2161L82.0762 49.395H82.0615L82.0703 49.4771H82.0821L84.539 49.2982L84.5332 49.2161ZM66.8389 49.4712L65.6867 49.5562L62.8926 49.7615H62.8779L62.8838 49.823H62.8955L65.7571 49.6149L66.9093 49.5298L66.836 49.4741L66.8389 49.4712ZM84.4217 48.1841L81.9736 48.3629H81.9619L81.9677 48.4245H81.9794L84.4276 48.2457L84.4217 48.1841Z" fill="#E9E454" stroke="#0C0C0C" stroke-width="0.216963" stroke-linecap="round" stroke-linejoin="round"/>
<path d="M84.3099 47.1318L81.8735 47.3107H81.8618L81.8676 47.3928H81.8794L84.3158 47.2139L84.3099 47.1318ZM65.5485 48.504L64.3962 48.589L62.7866 48.7092H62.7749L62.7808 48.7913H62.7925L64.493 48.6652L65.6452 48.5802L65.5456 48.504H65.5485ZM74.1479 47.8765H74.1273L73.4882 47.9235L73.5879 47.9997L74.1332 47.9586H74.1508L74.1449 47.8765H74.1479ZM55.0463 49.2751H55.0375H55.0258L52.5952 49.4539L52.6011 49.536L55.0317 49.3572H55.0522L55.0463 49.2751Z" fill="#E9E454" stroke="#0C0C0C" stroke-width="0.216963" stroke-linecap="round" stroke-linejoin="round"/>
<path d="M74.1509 47.9906V47.9583L74.1392 47.8762L74.0571 47.0142L74.0513 46.9351H74.0395L74.0483 47.0172L74.1304 47.8762L74.1392 47.9583V47.9906L74.1451 48.0521H74.1568L74.1509 47.9906ZM55.0465 49.3539L55.0377 49.2747L54.9556 48.4128L54.9497 48.3307H54.938L54.9438 48.4128L55.0259 49.2747L55.0347 49.3539V49.3862H55.0494V49.3539H55.0465ZM55.2546 51.5323L55.2458 51.4414L55.1579 50.5003L55.152 50.4182L55.1432 50.3273H55.1286L55.1374 50.4211L55.1462 50.5003L55.2341 51.4414L55.2429 51.5323L55.671 55.9654H55.6827L55.2546 51.5294V51.5323Z" fill="#E9E454" stroke="#0C0C0C" stroke-width="0.216963" stroke-linecap="round" stroke-linejoin="round"/>
<path d="M55.3542 52.4732L55.2546 51.4441L55.2487 51.362L55.1519 50.3886L55.1461 50.33H55.1402L55.149 50.4209L55.1549 50.503L55.2428 51.4441L55.2516 51.535L55.6797 55.971H55.6856L55.3484 52.4762L55.3542 52.4732ZM55.0464 49.2745H55.0376L55.0464 49.3566H55.0523L55.0464 49.2745ZM66.8386 49.4709L65.6864 49.556L62.8922 49.7612H62.8776L62.8834 49.8228H62.8952L65.7567 49.6146L66.909 49.5296L66.8357 49.4739L66.8386 49.4709ZM74.1479 47.876H74.1391L74.1479 47.9581H74.1538L74.1479 47.876ZM84.4214 48.1838L81.9733 48.3627H81.9615L81.9674 48.4243H81.9791L84.4273 48.2454L84.4214 48.1838Z" fill="#E9E454" stroke="#0C0C0C" stroke-width="0.216963" stroke-linecap="round" stroke-linejoin="round"/>
<path d="M81.9733 48.3655L84.4215 48.1867L84.4274 48.2482L81.9792 48.4271H81.9675L81.9616 48.3655H81.9733ZM62.5757 46.7354L62.4379 45.3104L64.1853 46.6181L63.1298 46.6943L63.0301 46.7002L62.5874 46.7324H62.5727L62.5757 46.7354ZM62.7868 48.8815L62.7809 48.82L62.6871 47.8495L62.6812 47.7674H62.6929L64.3026 47.6472L65.4548 47.5622L65.5545 47.6384L66.7449 48.5297L66.8182 48.5854L65.7627 48.6616L65.663 48.6704L62.8014 48.8786H62.7897L62.7868 48.8815ZM65.7627 49.6116L62.9011 49.8198H62.8894L62.8835 49.7582H62.8982L65.6923 49.553L66.8446 49.4679L66.9179 49.5236L65.7656 49.6087L65.7627 49.6116ZM73.7024 48.0811L73.6291 48.0254L73.5909 47.9961L73.4913 47.9199L72.4387 47.1312L72.339 47.0549L74.0366 46.9318H74.0483L74.0542 47.011L74.1363 47.873H74.1451L74.1509 47.9521H74.1451V47.9844L74.1509 48.0459H74.1392L74.1773 48.4388L73.6965 48.0753L73.7024 48.0811ZM81.8619 47.4244L81.7681 46.4539L81.7622 46.3718H81.774L84.2104 46.193L84.2016 46.1021L84.1107 45.1609L81.6743 45.3398H81.6625L81.0322 38.8191L81.0234 38.7283L80.9354 37.7871L73.2127 38.353L73.9457 45.9027L71.0841 46.1109L61.8515 39.1827L54.1082 39.7486L54.8383 47.2983L52.3901 47.4771L52.4986 48.5913H52.5074L52.5016 48.5092L54.9409 48.3303H54.9526L54.9585 48.4095L55.0406 49.2715H55.0494L55.0553 49.3507H55.0494V49.3829H55.0435L52.6159 49.5617L52.6218 49.6233L52.7244 50.6759H52.7302L52.7185 50.5615L52.7126 50.5L55.1286 50.3211H55.1491L55.1549 50.3798L55.2517 51.3532L55.2576 51.4353L55.3573 52.4644L55.6944 55.9592L63.4201 55.3904L62.992 50.9574L62.8923 49.9253L62.8865 49.8461H62.8982L66.8622 49.5559L68.0144 49.4709L68.1141 49.5442L69.3778 50.4912L74.8077 54.5578L82.5069 53.9948L82.0789 49.5647L81.9792 48.5297L81.9704 48.4505H81.9851L84.442 48.2688L84.4332 48.1779L84.3423 47.2367H84.3335" fill="#E9E454"/>
<path d="M81.8619 47.4244L81.7681 46.4539L81.7622 46.3718H81.774L84.2104 46.193L84.2016 46.1021L84.1107 45.1609L81.6743 45.3398H81.6625L81.0322 38.8191L81.0234 38.7283L80.9354 37.7871L73.2127 38.353L73.9457 45.9027L71.0841 46.1109L61.8515 39.1827L54.1082 39.7486L54.8383 47.2983L52.3901 47.4771L52.4986 48.5913H52.5074L52.5016 48.5092L54.9409 48.3303H54.9526L54.9585 48.4095L55.0406 49.2715H55.0494L55.0553 49.3507H55.0494V49.3829H55.0435L52.6159 49.5617L52.6218 49.6233L52.7244 50.6759H52.7302L52.7185 50.5615L52.7126 50.5L55.1286 50.3211H55.1491L55.1549 50.3798L55.2517 51.3532L55.2576 51.4353L55.3573 52.4644L55.6944 55.9592L63.4201 55.3904L62.992 50.9574L62.8923 49.9253L62.8865 49.8461H62.8982L66.8622 49.5559L68.0144 49.4709L68.1141 49.5442L69.3778 50.4912L74.8077 54.5578L82.5069 53.9948L82.0789 49.5647L81.9792 48.5297L81.9704 48.4505H81.9851L84.442 48.2688L84.4332 48.1779L84.3423 47.2367H84.3335M81.9733 48.3655L84.4215 48.1867L84.4274 48.2482L81.9792 48.4271H81.9675L81.9616 48.3655H81.9733ZM62.5757 46.7354L62.4379 45.3104L64.1853 46.6181L63.1298 46.6943L63.0301 46.7002L62.5874 46.7324H62.5727L62.5757 46.7354ZM62.7868 48.8815L62.7809 48.82L62.6871 47.8495L62.6812 47.7674H62.6929L64.3026 47.6472L65.4548 47.5622L65.5545 47.6384L66.7449 48.5297L66.8182 48.5854L65.7627 48.6616L65.663 48.6704L62.8014 48.8786H62.7897L62.7868 48.8815ZM65.7627 49.6116L62.9011 49.8198H62.8894L62.8835 49.7582H62.8982L65.6923 49.553L66.8446 49.4679L66.9179 49.5236L65.7656 49.6087L65.7627 49.6116ZM73.7024 48.0811L73.6291 48.0254L73.5909 47.9961L73.4913 47.9199L72.4387 47.1312L72.339 47.0549L74.0366 46.9318H74.0483L74.0542 47.011L74.1363 47.873H74.1451L74.1509 47.9521H74.1451V47.9844L74.1509 48.0459H74.1392L74.1773 48.4388L73.6965 48.0753L73.7024 48.0811Z" stroke="#0C0C0C" stroke-width="0.216963" stroke-linecap="round" stroke-linejoin="round"/>
<path d="M66.7422 48.5327L65.6867 48.609L65.587 48.6148L62.7929 48.8201H62.7782L62.7841 48.8816H62.7958L65.6574 48.6735L65.7571 48.6647L66.8126 48.5884L66.7393 48.5327H66.7422ZM74.1483 48.049H74.16L74.1541 47.9874H74.1453L73.6352 48.0255L73.7085 48.0812L74.1893 48.4448L74.1512 48.0519L74.1483 48.049ZM84.4335 48.2776L81.9765 48.4565H81.9618L81.9706 48.5386H81.9824L84.4393 48.3597L84.4335 48.2776ZM68.0088 49.4797L66.8565 49.5648L62.8926 49.855H62.8808L62.8867 49.9371H62.8984L66.9533 49.641L68.1055 49.556L68.0059 49.4827L68.0088 49.4797ZM55.1493 50.4209L55.1405 50.33H55.1259L52.71 50.5088L52.7158 50.5704L52.7276 50.6848L55.1435 50.5059H55.1552L55.1493 50.4238V50.4209ZM84.3221 47.2427L81.8739 47.4215H81.8622" fill="#E9E454"/>
<path d="M84.3221 47.2427L81.8739 47.4215H81.8622M66.7422 48.5327L65.6867 48.609L65.587 48.6148L62.7929 48.8201H62.7782L62.7841 48.8816H62.7958L65.6574 48.6735L65.7571 48.6647L66.8126 48.5884L66.7393 48.5327H66.7422ZM74.1483 48.049H74.16L74.1541 47.9874H74.1453L73.6352 48.0255L73.7085 48.0812L74.1893 48.4448L74.1512 48.0519L74.1483 48.049ZM84.4335 48.2776L81.9765 48.4565H81.9618L81.9706 48.5386H81.9824L84.4393 48.3597L84.4335 48.2776ZM68.0088 49.4797L66.8565 49.5648L62.8926 49.855H62.8808L62.8867 49.9371H62.8984L66.9533 49.641L68.1055 49.556L68.0059 49.4827L68.0088 49.4797ZM55.1493 50.4209L55.1405 50.33H55.1259L52.71 50.5088L52.7158 50.5704L52.7276 50.6848L55.1435 50.5059H55.1552L55.1493 50.4238V50.4209Z" stroke="#0C0C0C" stroke-width="0.216963" stroke-linecap="round" stroke-linejoin="round"/>
<path d="M84.2103 46.1904L81.7739 46.3693H81.7622L81.768 46.4514H81.7798L84.2162 46.2725L84.2103 46.1904ZM65.4518 47.5655L64.2996 47.6505L62.6899 47.7707H62.6782L62.6841 47.8528H62.6958L64.3963 47.7268L65.5486 47.6417L65.4489 47.5655H65.4518ZM74.0512 46.9351H74.0394L72.3419 47.0583L72.4415 47.1345L74.0512 47.0172H74.06L74.0541 46.9351H74.0512ZM54.9467 48.3337H54.935L52.4956 48.5125L52.5015 48.5946L54.9408 48.4158H54.9526L54.9467 48.3337Z" fill="#E9E454" stroke="#0C0C0C" stroke-width="0.216963" stroke-linecap="round" stroke-linejoin="round"/>
<path d="M154.256 27.6276C154.2 28.5863 154.068 29.5275 153.872 30.454C151.177 43.117 135.92 52.8217 117.507 52.8217C99.0946 52.8217 83.8339 43.1199 81.1395 30.454C80.8844 29.2548 80.7437 28.0293 80.7202 26.7832V26.8243C80.7437 28.0703 80.8844 29.2959 81.1395 30.495C83.8339 43.158 99.0917 52.8627 117.507 52.8627C135.923 52.8627 151.177 43.161 153.872 30.495C154.068 29.5685 154.2 28.6274 154.256 27.6686C154.262 27.5572 154.268 27.4458 154.274 27.3344C154.271 27.4312 154.262 27.5279 154.256 27.6247V27.6276Z" fill="#E9E454" stroke="#231F20" stroke-width="0.178848" stroke-miterlimit="10"/>
<path d="M117.507 0.108887C97.2094 0.108887 80.7495 11.8953 80.7173 26.4464V26.4875C80.7173 26.5842 80.7173 26.6869 80.7173 26.7865C80.7407 28.0326 80.8815 29.2582 81.1366 30.4573C83.831 43.1203 99.0888 52.825 117.504 52.825C135.92 52.825 151.175 43.1233 153.869 30.4573C154.065 29.5308 154.197 28.5897 154.253 27.6309C154.259 27.5313 154.265 27.4374 154.271 27.3407C154.282 27.0563 154.291 26.7748 154.291 26.4904V26.4494C154.259 11.9011 137.802 0.111819 117.504 0.111819L117.507 0.108887ZM145.803 28.7685C144.223 38.9687 132.152 46.9025 117.504 46.9025C102.856 46.9025 90.7855 38.9687 89.2052 28.7685C89.088 28.018 89.0293 27.2557 89.0293 26.4846C89.0293 21.3713 91.6505 16.6948 95.9839 13.112C101.206 8.7962 108.911 6.06657 117.504 6.06657C126.098 6.06657 133.803 8.7962 139.022 13.112C143.355 16.6948 145.979 21.3713 145.979 26.4875C145.979 27.2586 145.921 28.0209 145.803 28.7715V28.7685Z" fill="#E9E454" stroke="#231F20" stroke-width="0.216963" stroke-miterlimit="10"/>
<path d="M145.981 26.4873C145.981 27.2584 145.922 28.0207 145.805 28.7713C145.151 24.5552 142.703 20.7231 139.024 17.6827C133.805 13.3699 126.1 10.6373 117.506 10.6373C108.913 10.6373 101.208 13.3669 95.9858 17.6827C92.3062 20.7231 89.861 24.5522 89.2072 28.7684C89.0899 28.0178 89.0312 27.2555 89.0312 26.4844C89.0312 21.3711 91.6524 16.6947 95.9858 13.1118C101.208 8.79604 108.913 6.06641 117.506 6.06641C126.1 6.06641 133.805 8.79604 139.024 13.1118C143.357 16.6947 145.981 21.3711 145.981 26.4873Z" fill="#E9E454" stroke="#231F20" stroke-width="0.216963" stroke-miterlimit="10"/>
<path d="M145.803 28.7683C144.223 38.9685 132.152 46.9023 117.504 46.9023C102.856 46.9023 90.7854 38.9685 89.2051 28.7683C89.8589 24.5522 92.3041 20.7231 95.9837 17.6826C101.205 13.3668 108.911 10.6372 117.504 10.6372C126.098 10.6372 133.803 13.3668 139.022 17.6826C142.701 20.7231 145.146 24.5551 145.803 28.7712V28.7683Z" fill="#E9E454" stroke="#231F20" stroke-width="0.216963" stroke-miterlimit="10"/>
<path d="M154.294 26.4878V34.4656C154.294 49.0344 137.823 60.8442 117.507 60.8442C97.1918 60.8442 80.7173 49.0344 80.7173 34.4656V26.4878C80.7173 26.5845 80.7173 26.6872 80.7173 26.7869V26.8279C80.7407 28.074 80.8815 29.2995 81.1366 30.4987C83.831 43.1617 99.0888 52.8664 117.504 52.8664C135.92 52.8664 151.175 43.1646 153.869 30.4987C154.065 29.5722 154.197 28.631 154.253 27.6723C154.259 27.5609 154.265 27.4495 154.271 27.3381C154.282 27.0537 154.291 26.7722 154.291 26.4878H154.294Z" fill="#E9E454" stroke="#231F20" stroke-width="0.216963" stroke-linecap="round" stroke-linejoin="round"/>
<path d="M80.7173 26.4435V24.9805" stroke="#231F20" stroke-width="0.178848" stroke-miterlimit="10"/>
<path d="M122.949 28.1495V28.1172H122.955L122.949 28.0381H122.937L122.946 28.1202V28.1524L122.955 28.214L122.949 28.1524V28.1495ZM103.851 29.5158L103.845 29.4337H103.836L103.842 29.5129V29.5451H103.848V29.5129H103.854L103.851 29.5158ZM104.49 36.1273L104.153 32.6324L104.053 31.6033L104.047 31.5212L103.95 30.5478L103.944 30.4892H103.933L103.939 30.5508L103.95 30.6651L104.032 31.5271L104.041 31.6062L104.141 32.6383L104.478 36.1302L104.569 37.0714H104.581L104.49 36.1302V36.1273Z" fill="#E9E454" stroke="#0C0C0C" stroke-width="0.216963" stroke-linecap="round" stroke-linejoin="round"/>
<path d="M116.806 29.642L115.654 29.727L111.69 30.0173H111.678L111.684 30.0994H111.696L115.751 29.8033L116.903 29.7183L116.803 29.645L116.806 29.642ZM133.231 28.437L130.774 28.6158H130.759L130.768 28.6979H130.78L133.237 28.5191L133.231 28.437ZM133.008 26.3524L130.572 26.5312H130.56L130.566 26.6133H130.578L133.014 26.4345L133.008 26.3524ZM129.927 19.9197L129.827 18.8906H129.818L129.827 18.9815L130.457 25.5051H130.463L129.924 19.9227L129.927 19.9197ZM122.855 27.1763L122.849 27.0971H122.837L121.14 27.2202L121.239 27.2965L122.849 27.1792L122.931 28.0383H122.94L122.858 27.1763H122.855ZM115.54 28.6921L114.484 28.7683L114.558 28.824L115.613 28.7478L115.54 28.6921ZM114.247 27.7245L113.094 27.8096L111.485 27.9298H111.473L111.479 28.0119H111.491L113.191 27.8858L114.343 27.8008L114.244 27.7245H114.247ZM111.582 28.9823H111.576L111.582 29.0439H111.587L111.582 28.9823ZM103.75 28.5748L103.745 28.4927H103.733L101.293 28.6716L101.299 28.7536L103.739 28.5748L103.821 29.4368H103.833L103.75 28.5748ZM130.668 27.5838H130.663H130.668Z" fill="#E9E454"/>
<path d="M130.668 27.5838H130.663M116.806 29.642L115.654 29.727L111.69 30.0173H111.678L111.684 30.0994H111.696L115.751 29.8033L116.903 29.7183L116.803 29.645L116.806 29.642ZM133.231 28.437L130.774 28.6158H130.759L130.768 28.6979H130.78L133.237 28.5191L133.231 28.437ZM133.008 26.3524L130.572 26.5312H130.56L130.566 26.6133H130.578L133.014 26.4345L133.008 26.3524ZM129.927 19.9197L129.827 18.8906H129.818L129.827 18.9815L130.457 25.5051H130.463L129.924 19.9227L129.927 19.9197ZM122.855 27.1763L122.849 27.0971H122.837L121.14 27.2202L121.239 27.2965L122.849 27.1792L122.931 28.0383H122.94L122.858 27.1763H122.855ZM115.54 28.6921L114.484 28.7683L114.558 28.824L115.613 28.7478L115.54 28.6921ZM114.247 27.7245L113.094 27.8096L111.485 27.9298H111.473L111.479 28.0119H111.491L113.191 27.8858L114.343 27.8008L114.244 27.7245H114.247ZM111.582 28.9823H111.576L111.582 29.0439H111.587L111.582 28.9823ZM103.75 28.5748L103.745 28.4927H103.733L101.293 28.6716L101.299 28.7536L103.739 28.5748L103.821 29.4368H103.833L103.75 28.5748Z" stroke="#0C0C0C" stroke-width="0.216963" stroke-linecap="round" stroke-linejoin="round"/>
<path d="M101.393 29.6126L101.399 29.6947H101.39L101.299 28.7565L103.738 28.5747L103.82 29.4367L101.393 29.6126Z" fill="#E9E454" stroke="#0C0C0C" stroke-width="0.216963" stroke-linecap="round" stroke-linejoin="round"/>
<path d="M130.668 27.4726H130.656L130.665 27.5547L130.668 27.584H130.659L130.565 26.6135L130.577 26.6106L133.014 26.4347L133.008 26.3526L132.996 26.2617H133.005L133.104 27.2908L130.668 27.4726Z" fill="#E9E454" stroke="#0C0C0C" stroke-width="0.216963" stroke-linecap="round" stroke-linejoin="round"/>
<path d="M130.964 30.6741L131.395 35.1043L123.696 35.6672L118.266 31.6006L117.002 30.6536L116.903 30.5803L115.75 30.6653L111.786 30.9556H111.775L111.783 31.0348L111.883 32.0668L112.311 36.4999L104.58 37.0687L104.489 36.1275L112.214 35.5617L111.783 31.1286L111.684 30.0966H111.695L115.75 29.7975L116.903 29.7154L118.166 30.6624L123.596 34.7261L131.295 34.1631L130.867 29.733L130.768 28.698H130.779L133.239 28.5192L133.231 28.4371L133.222 28.3462H133.228L133.33 29.3782L130.87 29.5571L130.856 29.56L130.867 29.6392L130.964 30.6741Z" fill="#E9E454" stroke="#0C0C0C" stroke-width="0.216963" stroke-linecap="round" stroke-linejoin="round"/>
<path d="M104.047 31.5215L103.951 30.5481L103.945 30.4894H103.924L101.508 30.6683L101.514 30.7299L101.526 30.8442L101.617 31.7853H101.626L104.033 31.6065H104.053L104.047 31.5244V31.5215ZM116.904 30.5803L115.752 30.6653L111.788 30.9556H111.776L111.782 31.0377H111.794L115.848 30.7416L117.001 30.6566L116.901 30.5833L116.904 30.5803ZM133.332 29.3782L130.875 29.5571H130.86L130.869 29.6392H130.88L133.337 29.4603L133.332 29.3782ZM115.637 29.6333L114.485 29.7183L111.691 29.9236H111.676L111.682 29.9851H111.694L114.555 29.777L115.708 29.6919L115.634 29.6362L115.637 29.6333ZM133.22 28.3462L130.772 28.525H130.76L130.766 28.5866H130.778L133.226 28.4078L133.22 28.3462Z" fill="#E9E454" stroke="#0C0C0C" stroke-width="0.216963" stroke-linecap="round" stroke-linejoin="round"/>
<path d="M133.105 27.2905L130.669 27.4694H130.657L130.663 27.5515H130.675L133.111 27.3726L133.105 27.2905ZM114.347 28.6656L113.195 28.7506L111.585 28.8708H111.573L111.579 28.9529H111.591L113.291 28.8269L114.444 28.7418L114.344 28.6656H114.347ZM122.946 28.0382H122.926L122.287 28.0851L122.386 28.1613L122.932 28.1203H122.949L122.943 28.0382H122.946ZM103.845 29.4338H103.836H103.824L101.394 29.6126L101.399 29.6947L103.83 29.5159H103.851L103.845 29.4338Z" fill="#E9E454" stroke="#0C0C0C" stroke-width="0.216963" stroke-linecap="round" stroke-linejoin="round"/>
<path d="M122.949 28.1492V28.117L122.938 28.0349L122.855 27.1729L122.85 27.0938H122.838L122.847 27.1758L122.929 28.0349L122.938 28.117V28.1492L122.943 28.2108H122.955L122.949 28.1492ZM103.845 29.5155L103.836 29.4364L103.754 28.5744L103.748 28.4923H103.736L103.742 28.5744L103.824 29.4364L103.833 29.5155V29.5478H103.848V29.5155H103.845ZM104.053 31.694L104.044 31.6031L103.956 30.6619L103.95 30.5798L103.942 30.4889H103.927L103.936 30.5827L103.944 30.6619L104.032 31.6031L104.041 31.694L104.469 36.127H104.481L104.053 31.691V31.694Z" fill="#E9E454" stroke="#0C0C0C" stroke-width="0.216963" stroke-linecap="round" stroke-linejoin="round"/>
<path d="M104.153 32.6324L104.053 31.6033L104.048 31.5212L103.951 30.5478L103.945 30.4892H103.939L103.948 30.5801L103.954 30.6622L104.042 31.6033L104.05 31.6942L104.479 36.1302H104.484L104.147 32.6354L104.153 32.6324ZM103.845 29.4337H103.836L103.845 29.5158H103.851L103.845 29.4337ZM115.637 29.6331L114.485 29.7181L111.691 29.9233H111.676L111.682 29.9849H111.694L114.556 29.7767L115.708 29.6917L115.635 29.636L115.637 29.6331ZM122.947 28.0381H122.938L122.947 28.1202H122.953L122.947 28.0381ZM133.22 28.3459L130.772 28.5248H130.76L130.766 28.5864H130.778L133.226 28.4075L133.22 28.3459Z" fill="#E9E454" stroke="#0C0C0C" stroke-width="0.216963" stroke-linecap="round" stroke-linejoin="round"/>
<path d="M130.772 28.5247L133.22 28.3459L133.226 28.4074L130.778 28.5863H130.766L130.76 28.5247H130.772ZM111.374 26.8945L111.236 25.4696L112.984 26.7773L111.928 26.8535L111.828 26.8594L111.386 26.8916H111.371L111.374 26.8945ZM111.582 29.0437L111.576 28.9821L111.482 28.0116L111.477 27.9295H111.488L113.098 27.8093L114.25 27.7243L114.35 27.8005L115.54 28.6918L115.614 28.7475L114.558 28.8238L114.458 28.8326L111.597 29.0407H111.585L111.582 29.0437ZM114.558 29.7737L111.697 29.9819H111.685L111.679 29.9203H111.694L114.488 29.7151L115.64 29.63L115.713 29.6857L114.561 29.7708L114.558 29.7737ZM122.501 28.2432L122.427 28.1875L122.389 28.1582L122.29 28.082L121.237 27.2933L121.137 27.2171L122.835 27.0939H122.847L122.853 27.1731L122.935 28.0351H122.943L122.949 28.1142H122.943V28.1465L122.949 28.2081H122.938L122.976 28.6009L122.495 28.2374L122.501 28.2432ZM130.66 27.5836L130.566 26.6131L130.561 26.531H130.572L133.009 26.3521L133 26.2613L132.909 25.3201L130.473 25.4989H130.461L129.831 18.9783L129.822 18.8874L129.734 17.9463L122.011 18.5122L122.744 26.0619L119.882 26.27L110.65 19.3419L102.907 19.9078L103.637 27.4575L101.188 27.6363L101.297 28.7505H101.306L101.3 28.6684L103.739 28.4895H103.751L103.757 28.5687L103.839 29.4307H103.848L103.854 29.5098H103.848V29.5421H103.842L101.414 29.7209L101.42 29.7825L101.523 30.8351H101.529L101.517 30.7207L101.511 30.6592L103.927 30.4803H103.947L103.953 30.5389L104.05 31.5123L104.056 31.5944L104.156 32.6235L104.493 36.1184L112.218 35.5496L111.79 31.1165L111.691 30.0845L111.685 30.0053H111.697L115.661 29.7151L116.813 29.63L116.912 29.7033L118.176 30.6504L123.606 34.7169L131.305 34.154L130.877 29.7239L130.778 28.6889L130.769 28.6097H130.783L133.24 28.4279L133.232 28.3371L133.141 27.3959H133.132" fill="#E9E454"/>
<path d="M130.66 27.5836L130.566 26.6131L130.561 26.531H130.572L133.009 26.3521L133 26.2613L132.909 25.3201L130.473 25.4989H130.461L129.831 18.9783L129.822 18.8874L129.734 17.9463L122.011 18.5122L122.744 26.0619L119.882 26.27L110.65 19.3419L102.907 19.9078L103.637 27.4575L101.188 27.6363L101.297 28.7505H101.306L101.3 28.6684L103.739 28.4895H103.751L103.757 28.5687L103.839 29.4307H103.848L103.854 29.5098H103.848V29.5421H103.842L101.414 29.7209L101.42 29.7825L101.523 30.8351H101.529L101.517 30.7207L101.511 30.6591L103.927 30.4803H103.947L103.953 30.5389L104.05 31.5123L104.056 31.5944L104.156 32.6235L104.493 36.1184L112.218 35.5496L111.79 31.1165L111.691 30.0845L111.685 30.0053H111.697L115.661 29.7151L116.813 29.63L116.912 29.7033L118.176 30.6504L123.606 34.7169L131.305 34.154L130.877 29.7239L130.778 28.6889L130.769 28.6097H130.783L133.24 28.4279L133.232 28.3371L133.141 27.3959H133.132M130.772 28.5247L133.22 28.3459L133.226 28.4074L130.778 28.5863H130.766L130.76 28.5247H130.772ZM111.374 26.8945L111.236 25.4696L112.984 26.7773L111.928 26.8535L111.828 26.8594L111.386 26.8916H111.371L111.374 26.8945ZM111.582 29.0437L111.576 28.9821L111.482 28.0116L111.477 27.9295H111.488L113.098 27.8093L114.25 27.7243L114.35 27.8005L115.54 28.6918L115.614 28.7475L114.558 28.8238L114.458 28.8326L111.597 29.0407H111.585L111.582 29.0437ZM114.558 29.7737L111.697 29.9819H111.685L111.679 29.9203H111.694L114.488 29.7151L115.64 29.63L115.713 29.6857L114.561 29.7708L114.558 29.7737ZM122.501 28.2432L122.427 28.1875L122.389 28.1582L122.29 28.082L121.237 27.2933L121.137 27.2171L122.835 27.0939H122.847L122.853 27.1731L122.935 28.0351H122.943L122.949 28.1142H122.943V28.1465L122.949 28.2081H122.938L122.976 28.6009L122.495 28.2374L122.501 28.2432Z" stroke="#0C0C0C" stroke-width="0.216963" stroke-linecap="round" stroke-linejoin="round"/>
<path d="M115.541 28.6919L114.485 28.7681L114.385 28.774L111.591 28.9792H111.577L111.582 29.0408H111.594L114.456 28.8326L114.555 28.8238L115.611 28.7476L115.538 28.6919H115.541ZM122.944 28.2111H122.955L122.95 28.1495H122.941L122.431 28.1876L122.504 28.2433L122.985 28.6069L122.947 28.214L122.944 28.2111ZM133.232 28.4368L130.775 28.6157H130.76L130.769 28.6978H130.781L133.238 28.5189L133.232 28.4368ZM116.807 29.6418L115.655 29.7269L111.691 30.0171H111.679L111.685 30.0992H111.697L115.752 29.8031L116.904 29.7181L116.804 29.6448L116.807 29.6418ZM103.948 30.5801L103.939 30.4892H103.924L101.508 30.668L101.514 30.7296L101.526 30.8439L103.942 30.6651H103.954L103.948 30.583V30.5801ZM133.12 27.4048L130.672 27.5836H130.661" fill="#E9E454"/>
<path d="M133.12 27.4048L130.672 27.5836H130.661M115.541 28.6919L114.485 28.7681L114.385 28.774L111.591 28.9792H111.577L111.582 29.0408H111.594L114.456 28.8326L114.555 28.8238L115.611 28.7476L115.538 28.6919H115.541ZM122.944 28.2111H122.955L122.95 28.1495H122.941L122.431 28.1876L122.504 28.2433L122.985 28.6069L122.947 28.214L122.944 28.2111ZM133.232 28.4368L130.775 28.6157H130.76L130.769 28.6978H130.781L133.238 28.5189L133.232 28.4368ZM116.807 29.6418L115.655 29.7269L111.691 30.0171H111.679L111.685 30.0992H111.697L115.752 29.8031L116.904 29.7181L116.804 29.6448L116.807 29.6418ZM103.948 30.5801L103.939 30.4892H103.924L101.508 30.668L101.514 30.7296L101.526 30.8439L103.942 30.6651H103.954L103.948 30.583V30.5801Z" stroke="#0C0C0C" stroke-width="0.216963" stroke-linecap="round" stroke-linejoin="round"/>
<path d="M133.009 26.3521L130.572 26.5309H130.56L130.566 26.613H130.578L133.015 26.4341L133.009 26.3521ZM114.247 27.7242L113.095 27.8092L111.485 27.9294H111.474L111.479 28.0115H111.491L113.192 27.8855L114.344 27.8004L114.244 27.7242H114.247ZM122.85 27.0968H122.838L121.14 27.2199L121.24 27.2961L122.85 27.1789H122.858L122.852 27.0968H122.85ZM103.745 28.4924H103.733L101.294 28.6712L101.3 28.7533L103.739 28.5745H103.751L103.745 28.4924Z" fill="#E9E454" stroke="#0C0C0C" stroke-width="0.216963" stroke-linecap="round" stroke-linejoin="round"/>
<path d="M58.6274 75.8112C59.2695 76.5237 59.85 77.2772 60.3719 78.0688C67.5082 88.873 63.7201 106.553 50.805 119.676C37.8869 132.802 20.2689 136.869 9.3533 129.905C8.31833 129.246 7.34786 128.489 6.44189 127.63L6.47121 127.66C7.37425 128.516 8.34765 129.275 9.38262 129.935C20.2982 136.898 37.9162 132.828 50.8343 119.705C63.7494 106.582 67.5375 88.9023 60.4012 78.0981C59.8793 77.3065 59.2988 76.553 58.6567 75.8434C58.5834 75.7614 58.5101 75.6793 58.4309 75.5972C58.4984 75.6675 58.5599 75.7408 58.6244 75.8112H58.6274Z" fill="#E9E454" stroke="#231F20" stroke-width="0.178848" stroke-miterlimit="10"/>
<path d="M13.2375 82.7012C-1.00001 97.1674 -4.14598 117.166 6.20375 127.396L6.23307 127.425C6.30343 127.492 6.3738 127.563 6.4471 127.633C7.35013 128.489 8.32353 129.249 9.35851 129.908C20.2741 136.872 37.8921 132.802 50.8102 119.679C63.7253 106.555 67.5134 88.8759 60.3771 78.0717C59.8552 77.2801 59.2747 76.5266 58.6326 75.8171C58.5681 75.7438 58.5036 75.6705 58.4391 75.6001C58.2456 75.3919 58.0491 75.1867 57.8468 74.9873L57.8175 74.958C47.4267 64.7754 27.4808 68.238 13.2433 82.7042L13.2375 82.7012ZM53.5134 82.6367C59.6734 90.9195 56.8617 105.084 46.5882 115.524C36.3118 125.965 22.1916 129.002 13.815 122.974C13.1964 122.532 12.613 122.039 12.0647 121.5C8.42029 117.911 6.925 112.765 7.4117 107.162C7.99809 100.413 11.4578 93.007 17.4858 86.8793C23.5139 80.7544 30.8642 77.1775 37.5989 76.4855C43.193 75.9109 48.3679 77.3211 52.0123 80.9098C52.5605 81.4493 53.0648 82.0269 53.5134 82.6367Z" fill="#E9E454" stroke="#231F20" stroke-width="0.216963" stroke-miterlimit="10"/>
<path d="M52.0112 80.9098C52.5595 81.4493 53.0638 82.0269 53.5123 82.6367C50.0468 80.1446 45.602 79.2034 40.8522 79.6901C34.1147 80.385 26.7643 83.962 20.7392 90.0838C14.7111 96.2086 11.2515 103.615 10.6651 110.367C10.2517 115.123 11.2661 119.55 13.811 122.974C13.1924 122.532 12.6089 122.039 12.0607 121.499C8.41627 117.911 6.92099 112.765 7.40769 107.162C7.99408 100.413 11.4538 93.007 17.4818 86.8792C23.5099 80.7544 30.8602 77.1775 37.5949 76.4855C43.189 75.9109 48.3639 77.3211 52.0083 80.9098H52.0112Z" fill="#E9E454" stroke="#231F20" stroke-width="0.216963" stroke-miterlimit="10"/>
<path d="M53.5133 82.6369C59.6733 90.9196 56.8616 105.084 46.5881 115.524C36.3117 125.965 22.1915 129.002 13.815 122.974C11.27 119.55 10.2527 115.123 10.669 110.367C11.2554 103.618 14.7151 96.2117 20.7431 90.084C26.7712 83.9592 34.1215 80.3822 40.8562 79.6903C45.603 79.2006 50.0507 80.1447 53.5163 82.6369H53.5133Z" fill="#E9E454" stroke="#231F20" stroke-width="0.216963" stroke-miterlimit="10"/>
<path d="M57.8408 74.9844L63.5258 80.5814C73.9078 90.7992 70.7736 110.824 56.5214 125.302C42.2693 139.783 22.297 143.237 11.915 133.019L6.22998 127.422C6.30035 127.489 6.37071 127.56 6.44401 127.63L6.47333 127.659C7.37637 128.516 8.34977 129.275 9.38474 129.935C20.3003 136.898 37.9183 132.828 50.8364 119.705C63.7516 106.582 67.5396 88.9023 60.4033 78.0981C59.8814 77.3065 59.3009 76.553 58.6588 75.8434C58.5855 75.7613 58.5122 75.6792 58.433 75.5971C58.2395 75.389 58.0431 75.1837 57.8408 74.9844Z" fill="#E9E454" stroke="#231F20" stroke-width="0.216963" stroke-linecap="round" stroke-linejoin="round"/>
<path d="M33.7935 103.917L33.043 104.796L30.4687 107.822L30.4629 107.831L30.5244 107.881L30.5332 107.872L33.1661 104.773L33.9167 103.893L33.7965 103.911L33.7935 103.917ZM44.4599 91.3651L42.8649 93.2445L42.8561 93.2562L42.9206 93.306L42.9294 93.2972L44.5244 91.4179L44.4599 91.3651ZM42.8151 90.0604L41.2348 91.9222L41.226 91.931L41.2905 91.9837L41.2963 91.9749L42.8796 90.1132L42.8151 90.0604ZM36.0687 87.7442L35.2654 87.0933L35.2595 87.0991L35.3299 87.1548L40.4197 91.2801V91.2742L36.0687 87.7442ZM36.2827 97.874L36.2212 97.8241L36.2124 97.8329L35.11 99.1288L35.2331 99.1113L36.2769 97.8828L36.9454 98.4252L36.9512 98.4193L36.2798 97.874H36.2827ZM32.2308 104.154L31.5477 104.96L31.6386 104.946L32.3217 104.14L32.2308 104.154ZM30.6358 104.395L29.8853 105.274L28.8415 106.503L28.8327 106.511L28.8972 106.564L28.9031 106.555L30.0084 105.257L30.759 104.377L30.6358 104.395ZM29.6624 107.174L29.6566 107.18L29.7035 107.218L29.7093 107.212L29.6624 107.174ZM23.8777 112.472L23.8132 112.419L23.8074 112.428L22.2241 114.29L22.2886 114.343L23.8719 112.478L24.5433 113.023L24.5521 113.014L23.8807 112.469L23.8777 112.472ZM42.0528 92.5936L42.0469 92.5994L42.0528 92.5936Z" fill="#E9E454"/>
<path d="M42.0528 92.5936L42.0469 92.5994M33.7935 103.917L33.043 104.796L30.4687 107.822L30.4629 107.831L30.5244 107.881L30.5332 107.872L33.1661 104.773L33.9167 103.893L33.7965 103.911L33.7935 103.917ZM44.4599 91.3651L42.8649 93.2445L42.8561 93.2562L42.9206 93.306L42.9294 93.2972L44.5244 91.4179L44.4599 91.3651ZM42.8151 90.0604L41.2348 91.9222L41.226 91.931L41.2905 91.9837L41.2963 91.9749L42.8796 90.1132L42.8151 90.0604ZM36.0687 87.7442L35.2654 87.0933L35.2595 87.0991L35.3299 87.1548L40.4197 91.2801V91.2742L36.0687 87.7442ZM36.2827 97.874L36.2212 97.8241L36.2124 97.8329L35.11 99.1289L35.2331 99.1113L36.2769 97.8828L36.9454 98.4252L36.9512 98.4193L36.2798 97.874H36.2827ZM32.2308 104.154L31.5477 104.96L31.6386 104.946L32.3217 104.14L32.2308 104.154ZM30.6358 104.395L29.8853 105.274L28.8415 106.503L28.8327 106.511L28.8972 106.564L28.9031 106.555L30.0084 105.257L30.759 104.377L30.6358 104.395ZM29.6624 107.174L29.6566 107.18L29.7035 107.218L29.7093 107.212L29.6624 107.174ZM23.8777 112.472L23.8132 112.419L23.8074 112.428L22.2241 114.29L22.2886 114.343L23.8719 112.478L24.5433 113.023L24.5521 113.014L23.8807 112.469L23.8777 112.472Z" stroke="#0C0C0C" stroke-width="0.216963" stroke-linecap="round" stroke-linejoin="round"/>
<path d="M42.7931 93.1799L44.3822 91.3093L44.4291 91.3475L42.84 93.218L42.8312 93.2268L42.7843 93.1887L42.7931 93.1799ZM28.0279 105.861L26.9167 104.957L29.0746 104.629L28.3914 105.435L28.3269 105.509L28.0396 105.849L28.0308 105.861H28.0279ZM29.705 107.218L29.658 107.18L28.8987 106.564L28.8342 106.511L28.843 106.503L29.8867 105.274L30.6373 104.395L30.7605 104.377L32.2323 104.154L32.3232 104.139L31.64 104.946L31.5755 105.022L29.7167 107.212L29.7079 107.221L29.705 107.218ZM32.3114 105.608L30.4526 107.799L30.4438 107.807L30.3969 107.769L30.4057 107.757L32.2206 105.62L32.9711 104.741L33.062 104.726L32.3144 105.608H32.3114ZM36.7914 98.8767L36.7005 98.8913L36.6536 98.8972L36.5276 98.9177L35.2287 99.1141L35.1056 99.1317L36.208 97.8358L36.2168 97.827L36.2783 97.8769L36.9498 98.4222L36.9556 98.4163L37.0172 98.4662V98.472L37.0377 98.4926L37.0846 98.5307L37.0758 98.5395L37.3837 98.7887L36.7885 98.8767H36.7914ZM42.0455 92.5994L41.2861 91.9837L41.2216 91.9309L41.2304 91.9221L42.8107 90.0603L42.7403 90.0046L42.0073 89.4095L40.4241 91.2712H40.4212L40.4182 91.28L35.3284 87.1548L35.258 87.0991L34.5251 86.5039L29.5115 92.4059L35.4076 97.182L33.5517 99.3663L22.1376 101.087L17.1094 107.001L23.0026 111.777L21.4135 113.648L22.2842 114.351L22.2901 114.346L22.2256 114.293L23.8088 112.431L23.8147 112.422L23.8792 112.475L24.5506 113.02L24.5565 113.012L24.621 113.064L24.6151 113.07L24.6415 113.091H24.6386L24.6327 113.099L23.0583 114.955L23.1052 114.993L23.9291 115.659L23.9349 115.653L23.847 115.583L23.8 115.545L25.3686 113.698L25.3745 113.692H25.3774L25.3833 113.683L25.4273 113.721L26.1896 114.337L26.2541 114.39L27.0574 115.04L29.7841 117.251L34.7977 111.346L31.338 108.543L30.5318 107.892L30.4702 107.843L30.4761 107.834L33.0503 104.808L33.8009 103.928L33.9211 103.911L35.4809 103.673L42.1862 102.656L47.1851 96.7745L43.7255 93.9715L42.9192 93.3177L42.8547 93.2679L42.8635 93.2561L44.4584 91.3768L44.3851 91.3181L43.6522 90.723L43.6463 90.7288" fill="#E9E454"/>
<path d="M42.0455 92.5994L41.2861 91.9837L41.2216 91.9309L41.2304 91.9221L42.8107 90.0603L42.7403 90.0046L42.0073 89.4095L40.4241 91.2712H40.4212L40.4182 91.28L35.3284 87.1548L35.258 87.0991L34.5251 86.5039L29.5115 92.4059L35.4076 97.182L33.5517 99.3663L22.1376 101.087L17.1094 107.001L23.0026 111.777L21.4135 113.648L22.2842 114.351L22.2901 114.346L22.2256 114.293L23.8088 112.431L23.8147 112.422L23.8792 112.475L24.5506 113.02L24.5565 113.012L24.621 113.064L24.6151 113.07L24.6415 113.091H24.6386L24.6327 113.099L23.0583 114.955L23.1052 114.993L23.9291 115.659L23.9349 115.653L23.847 115.583L23.8 115.545L25.3686 113.698L25.3745 113.692H25.3774L25.3833 113.683L25.4273 113.721L26.1896 114.337L26.2541 114.39L27.0574 115.04L29.7841 117.251L34.7977 111.346L31.338 108.543L30.5318 107.892L30.4702 107.843L30.4761 107.834L33.0503 104.808L33.8009 103.928L33.9211 103.911L35.4809 103.673L42.1862 102.656L47.1851 96.7745L43.7255 93.9715L42.9192 93.3177L42.8547 93.2679L42.8635 93.2561L44.4584 91.3768L44.3851 91.3181L43.6522 90.723L43.6463 90.7288M42.7931 93.1799L44.3822 91.3093L44.4291 91.3475L42.84 93.218L42.8312 93.2268L42.7843 93.1887L42.7931 93.1799ZM28.0279 105.861L26.9167 104.957L29.0746 104.629L28.3915 105.435L28.3269 105.509L28.0396 105.849L28.0308 105.861H28.0279ZM29.705 107.218L29.658 107.18L28.8987 106.564L28.8342 106.511L28.843 106.503L29.8867 105.274L30.6373 104.395L30.7605 104.377L32.2323 104.154L32.3232 104.139L31.64 104.946L31.5755 105.022L29.7167 107.212L29.7079 107.221L29.705 107.218ZM32.3114 105.608L30.4526 107.799L30.4438 107.807L30.3969 107.769L30.4057 107.757L32.2206 105.62L32.9711 104.741L33.062 104.726L32.3144 105.608H32.3114ZM36.7914 98.8767L36.7005 98.8913L36.6536 98.8972L36.5276 98.9177L35.2287 99.1141L35.1056 99.1317L36.208 97.8358L36.2168 97.827L36.2783 97.8769L36.9498 98.4222L36.9556 98.4163L37.0172 98.4662V98.472L37.0377 98.4926L37.0846 98.5307L37.0758 98.5395L37.3837 98.7887L36.7885 98.8767H36.7914Z" stroke="#0C0C0C" stroke-width="0.216963" stroke-linecap="round" stroke-linejoin="round"/>
<path d="M149.54 111.575C148.79 112.171 147.998 112.701 147.177 113.17C135.934 119.588 118.541 114.659 106.287 100.916C94.0325 87.1725 91.1184 69.3305 98.7759 58.891C99.5 57.903 100.321 56.9825 101.236 56.1353L101.203 56.1646C100.289 57.0118 99.4677 57.9323 98.7436 58.9203C91.0862 69.3599 93.9973 87.2018 106.254 100.945C118.509 114.686 135.902 119.614 147.145 113.2C147.969 112.73 148.757 112.2 149.508 111.605C149.593 111.534 149.681 111.467 149.766 111.397C149.69 111.458 149.616 111.517 149.54 111.575Z" fill="#E9E454" stroke="#231F20" stroke-width="0.17883" stroke-miterlimit="10"/>
<path d="M145.62 65.836C132.111 50.6882 112.364 46.2497 101.485 55.9066L101.452 55.9359C101.379 56.0004 101.303 56.0678 101.233 56.1352C100.318 56.9825 99.497 57.903 98.7729 58.891C91.1155 69.3305 94.0266 87.1725 106.284 100.916C118.538 114.657 135.931 119.585 147.174 113.17C147.998 112.701 148.787 112.171 149.537 111.575C149.613 111.514 149.69 111.455 149.763 111.394C149.983 111.215 150.2 111.033 150.411 110.842L150.443 110.813C161.278 101.107 159.124 80.9808 145.618 65.8331L145.62 65.836ZM143.064 106.029C134.401 111.637 120.449 107.908 110.699 96.9788C100.948 86.0496 98.8374 71.7608 105.398 63.7927C105.879 63.2063 106.41 62.6552 106.984 62.1421C110.801 58.7385 116.034 57.5835 121.593 58.4336C128.289 59.4597 135.454 63.391 141.173 69.8054C146.893 76.2199 149.983 83.7864 150.235 90.5526C150.443 96.1696 148.702 101.241 144.885 104.645C144.31 105.158 143.7 105.621 143.064 106.032V106.029Z" fill="#E9E454" stroke="#231F20" stroke-width="0.216941" stroke-miterlimit="10"/>
<path d="M144.884 104.642C144.309 105.155 143.699 105.618 143.063 106.029C145.775 102.734 147.003 98.3595 146.824 93.5898C146.569 86.8236 143.479 79.257 137.763 72.8426C132.046 66.4282 124.878 62.4968 118.182 61.4708C113.462 60.7467 108.98 61.4708 105.397 63.7897C105.878 63.2034 106.409 62.6522 106.983 62.1392C110.8 58.7356 116.033 57.5805 121.592 58.4307C128.288 59.4567 135.453 63.3881 141.172 69.8025C146.892 76.2169 149.982 83.7835 150.234 90.5497C150.442 96.1667 148.701 101.238 144.884 104.642Z" fill="#E9E454" stroke="#231F20" stroke-width="0.216941" stroke-miterlimit="10"/>
<path d="M143.066 106.029C134.403 111.637 120.451 107.908 110.701 96.9789C100.95 86.0498 98.8395 71.761 105.4 63.7928C108.983 61.4739 113.465 60.7498 118.185 61.4739C124.881 62.5 132.046 66.4313 137.766 72.8457C143.485 79.2601 146.575 86.8267 146.827 93.5929C147.006 98.3627 145.775 102.737 143.066 106.032V106.029Z" fill="#E9E454" stroke="#231F20" stroke-width="0.216941" stroke-miterlimit="10"/>
<path d="M150.417 110.843L144.463 116.152C133.593 125.847 113.816 121.414 100.295 106.255C86.7744 91.0922 84.6255 70.9401 95.499 61.2452L101.453 55.936C101.38 56.0005 101.304 56.068 101.233 56.1354L101.201 56.1647C100.286 57.0119 99.4655 57.9325 98.7413 58.9204C91.0839 69.36 93.995 87.2019 106.252 100.945C118.506 114.686 135.9 119.614 147.143 113.2C147.966 112.731 148.755 112.2 149.506 111.605C149.591 111.535 149.679 111.467 149.764 111.397C149.983 111.218 150.2 111.036 150.411 110.846L150.417 110.843Z" fill="#E9E454" stroke="#231F20" stroke-width="0.216941" stroke-linecap="round" stroke-linejoin="round"/>
<path d="M101.485 55.9064L102.578 54.9331" stroke="#231F20" stroke-width="0.17883" stroke-miterlimit="10"/>
<path d="M128.315 88.5597L128.336 88.5362H128.342L128.397 88.4805L128.389 88.4717L128.333 88.5333L128.312 88.5568L128.271 88.6037L128.312 88.5597H128.315ZM114.586 75.2149L114.642 75.1563L114.633 75.1504L114.578 75.2061L114.554 75.2295H114.557L114.581 75.209L114.586 75.2149ZM110.078 80.0931L112.461 77.5162L113.165 76.7569L113.22 76.6983L113.883 75.9771L113.924 75.9331L113.915 75.9243L113.874 75.9683L113.798 76.0533L113.212 76.6866L113.159 76.7481L112.455 77.5074L110.072 80.0843L109.43 80.7791L109.438 80.7879L110.081 80.0931H110.078Z" fill="#E9E454" stroke="#0C0C0C" stroke-width="0.216941" stroke-linecap="round" stroke-linejoin="round"/>
<path d="M123.114 84.9681L122.285 84.1619L119.432 81.3973L119.423 81.3886L119.368 81.4472L119.376 81.456L122.296 84.285L123.126 85.0912L123.114 84.9681ZM134.943 96.4249L133.173 94.7099L133.161 94.7011L133.108 94.7627L133.117 94.7715L134.888 96.4865L134.943 96.4278V96.4249ZM136.351 94.8682L134.595 93.1708L134.586 93.162L134.53 93.2206L134.539 93.2294L136.292 94.9298L136.348 94.8711L136.351 94.8682ZM139.101 88.2896L139.804 87.5303L139.798 87.5245L139.737 87.5919L135.289 92.4027H135.295L139.101 88.2896ZM128.981 87.8411L129.036 87.7825L129.027 87.7737L127.805 86.5893L127.814 86.7124L128.972 87.8352L128.385 88.4685L128.391 88.4743L128.978 87.8411H128.981ZM122.979 83.3909L122.22 82.655L122.229 82.7459L122.988 83.4817L122.979 83.3909ZM122.842 81.7843L122.012 80.9781L120.854 79.8582L120.845 79.8494L120.79 79.9081L120.798 79.9169L122.021 81.1042L122.85 81.9104L122.842 81.7873V81.7843ZM120.13 80.6322L120.124 80.6263L120.083 80.6732L120.089 80.6791L120.13 80.6322ZM115.222 74.5168L115.278 74.4582L115.269 74.4494L113.513 72.749L113.458 72.8077L115.214 74.508L114.627 75.1412L114.636 75.15L115.222 74.5168ZM133.873 93.9447L133.868 93.9389L133.873 93.9447Z" fill="#E9E454"/>
<path d="M133.873 93.9447L133.868 93.9389M123.114 84.9681L122.285 84.1619L119.432 81.3973L119.423 81.3886L119.368 81.4472L119.376 81.456L122.296 84.285L123.126 85.0912L123.114 84.9681ZM134.943 96.4249L133.173 94.7099L133.161 94.7011L133.108 94.7627L133.117 94.7715L134.888 96.4865L134.943 96.4278V96.4249ZM136.351 94.8682L134.595 93.1708L134.586 93.162L134.53 93.2206L134.539 93.2294L136.292 94.9298L136.348 94.8711L136.351 94.8682ZM139.101 88.2896L139.804 87.5303L139.798 87.5245L139.737 87.5919L135.289 92.4027H135.295L139.101 88.2896ZM128.981 87.8411L129.036 87.7825L129.027 87.7737L127.805 86.5893L127.814 86.7124L128.972 87.8352L128.385 88.4685L128.391 88.4743L128.978 87.8411H128.981ZM122.979 83.3909L122.22 82.655L122.229 82.7459L122.988 83.4817L122.979 83.3909ZM122.842 81.7843L122.012 80.9781L120.854 79.8582L120.845 79.8494L120.79 79.9081L120.798 79.9169L122.021 81.1042L122.85 81.9104L122.842 81.7873V81.7843ZM120.13 80.6322L120.124 80.6263L120.083 80.6732L120.089 80.6791L120.13 80.6322ZM115.222 74.5168L115.278 74.4582L115.269 74.4494L113.513 72.749L113.458 72.8077L115.214 74.508L114.627 75.1412L114.636 75.15L115.222 74.5168Z" stroke="#0C0C0C" stroke-width="0.216941" stroke-linecap="round" stroke-linejoin="round"/>
<path d="M112.877 73.4472L112.821 73.5058L112.815 73.5L113.455 72.8052L113.457 72.8081L115.214 74.5085L114.627 75.1417L112.877 73.4472Z" fill="#E9E454" stroke="#0C0C0C" stroke-width="0.216941" stroke-linecap="round" stroke-linejoin="round"/>
<path d="M131.768 96.2231L128.746 99.4919L123.202 94.1211L122.624 87.3637L122.49 85.7894L122.478 85.6663L121.648 84.863L118.796 82.0956L118.784 82.0897L118.731 82.1483L118.028 82.9106L115.005 86.1793L109.435 80.7881L110.077 80.0933L115.641 85.4816L118.664 82.2099L119.367 81.4477L119.376 81.4565L122.296 84.2855L123.126 85.0888L123.261 86.6631L123.838 93.4205L129.382 98.7912L132.404 95.5225L133.108 94.7602L133.117 94.769L134.888 96.484L134.943 96.4254L135.005 96.355L135.011 96.3609L134.307 97.1231L132.536 95.4111L132.528 95.3993L132.475 95.4609L131.768 96.2231Z" fill="#E9E454" stroke="#0C0C0C" stroke-width="0.216941" stroke-linecap="round" stroke-linejoin="round"/>
<path d="M113.22 76.6955L113.883 75.9743L113.924 75.9303L113.909 75.9127L112.168 74.2271L112.126 74.271L112.05 74.356L111.408 75.0508L111.414 75.0567L113.15 76.7336L113.164 76.7512L113.22 76.6926V76.6955ZM122.478 85.6663L121.648 84.8601L118.796 82.0956L118.787 82.0868L118.731 82.1454L118.74 82.1542L121.66 84.9832L122.49 85.7894L122.478 85.6663ZM134.307 97.1231L132.537 95.4081L132.525 95.3993L132.472 95.4609L132.481 95.4697L134.252 97.1847L134.307 97.1261V97.1231ZM122.343 84.0891L121.514 83.2829L119.5 81.3333L119.491 81.3216L119.45 81.3685L119.458 81.3773L121.519 83.3738L122.352 84.18L122.343 84.0891ZM135.005 96.355L133.24 94.6488L133.231 94.64L133.19 94.684L133.199 94.6928L134.964 96.399L135.005 96.355Z" fill="#E9E454" stroke="#0C0C0C" stroke-width="0.216941" stroke-linecap="round" stroke-linejoin="round"/>
<path d="M135.714 95.5689L133.958 93.8715L133.949 93.8627L133.893 93.9213L133.902 93.9301L135.655 95.6305L135.711 95.5718L135.714 95.5689ZM122.205 82.4821L121.375 81.6759L120.217 80.556L120.209 80.5472L120.153 80.6058L120.162 80.6146L121.384 81.8019L122.214 82.6081L122.205 82.485V82.4821ZM128.397 88.4831L128.385 88.4685L127.925 88.0229L127.936 88.1489L128.329 88.53L128.335 88.5359H128.341L128.397 88.4802V88.4831ZM114.641 75.1559L114.633 75.1501L114.624 75.1413L112.874 73.4468L112.818 73.5054L114.571 75.1999L114.583 75.2146L114.638 75.1559H114.641Z" fill="#E9E454" stroke="#0C0C0C" stroke-width="0.216941" stroke-linecap="round" stroke-linejoin="round"/>
<path d="M128.313 88.5587L128.334 88.5352L128.39 88.4737L128.976 87.8404L129.032 87.7818L129.023 87.773L128.967 87.8346L128.381 88.4678L128.325 88.5294L128.305 88.5528L128.264 88.5968L128.272 88.6056L128.313 88.5587ZM114.579 75.208L114.631 75.1465L115.218 74.5132L115.273 74.4546L115.265 74.4458L115.209 74.5044L114.623 75.1377L114.57 75.1992L114.546 75.2227L114.555 75.2315L114.579 75.208ZM113.095 76.8146L113.157 76.7471L113.799 76.0553L113.855 75.9966L113.916 75.9292L113.907 75.9175L113.843 75.9878L113.79 76.0494L113.148 76.7413L113.086 76.8087L110.064 80.0775L110.073 80.0863L113.098 76.8146H113.095Z" fill="#E9E454" stroke="#0C0C0C" stroke-width="0.216941" stroke-linecap="round" stroke-linejoin="round"/>
<path d="M112.459 77.5152L113.162 76.7559L113.218 76.6973L113.88 75.9761L113.922 75.9322L113.916 75.9263L113.854 75.9937L113.798 76.0524L113.156 76.7442L113.095 76.8117L110.069 80.0834L110.075 80.0892L112.459 77.5123V77.5152ZM114.64 75.1553L114.631 75.1494L114.578 75.211L114.584 75.2168L114.64 75.1582V75.1553ZM122.341 84.088L121.512 83.2818L119.497 81.3322L119.489 81.3205L119.448 81.3674L119.456 81.3762L121.517 83.3726L122.35 84.1788L122.341 84.088ZM128.395 88.4825L128.389 88.4766L128.333 88.5382H128.339L128.395 88.4825ZM135.003 96.3539L133.238 94.6477L133.229 94.6389L133.188 94.6829L133.197 94.6917L134.962 96.3979L135.003 96.3539Z" fill="#E9E454" stroke="#0C0C0C" stroke-width="0.216941" stroke-linecap="round" stroke-linejoin="round"/>
<path d="M133.237 94.6451L135.001 96.3513L134.96 96.3953L133.196 94.6891L133.187 94.6803L133.228 94.6363L133.237 94.6451ZM121.545 79.0869L122.519 78.0344L122.706 80.2097L121.947 79.4739L121.876 79.4035L121.557 79.0957L121.548 79.084L121.545 79.0869ZM120.082 80.67L120.123 80.6231L120.786 79.9077L120.842 79.8491L120.85 79.8579L122.008 80.9778L122.838 81.784L122.847 81.9071L122.973 83.3905L122.982 83.4814L122.222 82.7456L122.149 82.6781L120.088 80.6788L120.079 80.67H120.082ZM121.516 83.3788L119.455 81.3794L119.446 81.3706L119.487 81.3237L119.496 81.3355L121.51 83.285L122.34 84.0912L122.348 84.1821L121.516 83.3788ZM127.945 88.2864L127.936 88.1955V88.1486L127.922 88.0225L127.81 86.7121L127.801 86.5889L129.024 87.7733L129.033 87.7821L128.977 87.8407L128.391 88.474L128.396 88.4798L128.341 88.5385H128.335L128.314 88.5561L128.273 88.603L128.265 88.5942L127.998 88.8844L127.948 88.2834L127.945 88.2864ZM133.864 93.9386L134.527 93.2232L134.582 93.1646L134.591 93.1734L136.347 94.8708L136.409 94.8034L137.051 94.1086L135.298 92.4082H135.295L135.289 92.3994L139.736 87.5886L139.798 87.5212L140.44 86.8293L134.878 81.441L129.73 87.0111L127.669 85.0147L126.696 73.5138L121.123 68.1108L115.972 73.6809L114.207 71.9747L113.448 72.7956L113.454 72.8015L113.51 72.7428L115.266 74.4432L115.274 74.452L115.219 74.5106L114.632 75.1438L114.641 75.1497L114.586 75.2083L114.58 75.2025L114.556 75.2259H114.553L114.547 75.2171L112.8 73.5256L112.759 73.5695L112.041 74.3464L112.047 74.3523L112.123 74.2673L112.164 74.2233L113.905 75.909L113.911 75.9149H113.914L113.92 75.9237L113.879 75.9676L113.216 76.6888L113.161 76.7474L112.457 77.5067L110.074 80.0836L115.638 85.472L118.66 82.2032L119.364 81.441L119.42 81.3824L119.429 81.3911L122.281 84.1557L123.111 84.9619L123.122 85.085L123.257 86.6593L123.835 93.4167L129.379 98.7875L132.401 95.5187L133.108 94.7565L133.16 94.6949L133.172 94.7037L134.943 96.4187L135.004 96.3513L135.646 95.6565L135.641 95.6506" fill="#E9E454"/>
<path d="M133.864 93.9386L134.527 93.2232L134.582 93.1646L134.591 93.1734L136.347 94.8708L136.409 94.8034L137.051 94.1086L135.298 92.4082H135.295L135.289 92.3994L139.736 87.5886L139.798 87.5212L140.44 86.8293L134.878 81.441L129.73 87.0111L127.669 85.0147L126.696 73.5138L121.123 68.1108L115.972 73.6809L114.207 71.9747L113.448 72.7956L113.454 72.8015L113.51 72.7428L115.266 74.4432L115.274 74.452L115.219 74.5106L114.632 75.1438L114.641 75.1497L114.586 75.2083L114.58 75.2025L114.556 75.2259H114.553L114.547 75.2171L112.8 73.5256L112.759 73.5695L112.041 74.3464L112.047 74.3523L112.123 74.2673L112.164 74.2233L113.905 75.909L113.911 75.9149H113.914L113.92 75.9237L113.879 75.9676L113.216 76.6888L113.161 76.7474L112.457 77.5067L110.074 80.0836L115.638 85.472L118.66 82.2032L119.364 81.441L119.42 81.3824L119.429 81.3911L122.281 84.1557L123.111 84.9619L123.122 85.085L123.257 86.6593L123.835 93.4167L129.379 98.7875L132.401 95.5187L133.108 94.7565L133.16 94.6949L133.172 94.7037L134.943 96.4187L135.004 96.3513L135.646 95.6565L135.641 95.6506M133.237 94.6451L135.001 96.3513L134.96 96.3953L133.196 94.689L133.187 94.6803L133.228 94.6363L133.237 94.6451ZM121.545 79.0869L122.519 78.0344L122.706 80.2097L121.947 79.4739L121.876 79.4035L121.557 79.0957L121.548 79.084L121.545 79.0869ZM120.082 80.67L120.123 80.6231L120.786 79.9077L120.842 79.8491L120.85 79.8579L122.008 80.9778L122.838 81.784L122.847 81.9071L122.973 83.3905L122.982 83.4814L122.222 82.7456L122.149 82.6781L120.088 80.6788L120.079 80.67H120.082ZM121.516 83.3788L119.455 81.3794L119.446 81.3706L119.487 81.3237L119.496 81.3355L121.51 83.285L122.34 84.0912L122.348 84.1821L121.516 83.3788ZM127.945 88.2864L127.936 88.1955V88.1486L127.922 88.0225L127.81 86.7121L127.801 86.5889L129.024 87.7733L129.033 87.7821L128.977 87.8407L128.391 88.474L128.396 88.4798L128.341 88.5385H128.335L128.314 88.5561L128.273 88.603L128.265 88.5942L127.998 88.8844L127.948 88.2834L127.945 88.2864Z" stroke="#0C0C0C" stroke-width="0.216941" stroke-linecap="round" stroke-linejoin="round"/>
<path d="M122.977 83.3908L122.218 82.655L122.148 82.5846L120.134 80.6351L120.125 80.6234L120.084 80.6703L120.093 80.6791L122.154 82.6755L122.227 82.7459L122.986 83.4817L122.977 83.3908ZM128.266 88.5974L128.275 88.6062L128.316 88.5593L128.31 88.5535L127.944 88.1987L127.952 88.2896L128.002 88.8906L128.269 88.6004L128.266 88.5974ZM134.941 96.4249L133.171 94.7099L133.159 94.7011L133.106 94.7627L133.115 94.7715L134.886 96.4865L134.941 96.4278V96.4249ZM123.112 84.9681L122.283 84.1619L119.43 81.3973L119.421 81.3885L119.366 81.4472L119.375 81.456L122.294 84.285L123.124 85.0912L123.112 84.9681ZM113.854 75.9973L113.916 75.9298L113.907 75.9181L112.166 74.2324L112.125 74.2764L112.048 74.3614L113.79 76.05L113.799 76.0588L113.854 76.0002V75.9973ZM135.639 95.6539L133.874 93.9477H133.871L133.866 93.9389" fill="#E9E454"/>
<path d="M135.639 95.6539L133.874 93.9477H133.871L133.866 93.9389M122.977 83.3908L122.218 82.655L122.148 82.5846L120.134 80.6351L120.125 80.6234L120.084 80.6703L120.093 80.6791L122.154 82.6755L122.227 82.7459L122.986 83.4817L122.977 83.3908ZM128.266 88.5974L128.275 88.6062L128.316 88.5593L128.31 88.5535L127.944 88.1987L127.952 88.2896L128.002 88.8906L128.269 88.6004L128.266 88.5974ZM134.941 96.4249L133.171 94.7099L133.159 94.7011L133.106 94.7627L133.115 94.7715L134.886 96.4865L134.941 96.4278V96.4249ZM123.112 84.9681L122.283 84.1619L119.43 81.3973L119.421 81.3885L119.366 81.4472L119.375 81.456L122.294 84.285L123.124 85.0912L123.112 84.9681ZM113.854 75.9973L113.916 75.9298L113.907 75.9181L112.166 74.2324L112.125 74.2764L112.048 74.3614L113.79 76.05L113.799 76.0588L113.854 76.0002V75.9973Z" stroke="#0C0C0C" stroke-width="0.216941" stroke-linecap="round" stroke-linejoin="round"/>
<path d="M136.351 94.8682L134.595 93.1708L134.586 93.162L134.53 93.2206L134.539 93.2294L136.292 94.9298L136.348 94.8711L136.351 94.8682ZM122.842 81.7843L122.012 80.9781L120.854 79.8582L120.845 79.8495L120.79 79.9081L120.798 79.9169L122.021 81.1042L122.85 81.9104L122.842 81.7873V81.7843ZM129.033 87.7825L129.025 87.7737L127.802 86.5893L127.811 86.7124L128.969 87.8352L128.978 87.8411L129.033 87.7825ZM115.278 74.4552L115.269 74.4464L113.513 72.7461L113.458 72.8047L115.214 74.5051L115.222 74.5139L115.278 74.4552Z" fill="#E9E454" stroke="#0C0C0C" stroke-width="0.216941" stroke-linecap="round" stroke-linejoin="round"/>
</svg>
